<svg width="2011" height="176" viewBox="0 0 2011 176" fill="none" xmlns="http://www.w3.org/2000/svg">
<mask id="path-1-inside-1_310_257547" fill="white">
<path d="M0 0H2011V176H0V0Z"/>
</mask>
<path d="M2011 176V175H0V176V177H2011V176Z" fill="#E2E8F0" mask="url(#path-1-inside-1_310_257547)"/>
<path d="M73.767 70.0909V105H67.4432V70.0909H73.767ZM90.2628 105.511C87.6491 105.511 85.4048 104.937 83.5298 103.79C81.6662 102.642 80.2287 101.057 79.2173 99.0341C78.2173 97 77.7173 94.6591 77.7173 92.0114C77.7173 89.3523 78.2287 87.0057 79.2514 84.9716C80.2741 82.9261 81.7173 81.3352 83.581 80.1989C85.456 79.0511 87.6719 78.4773 90.2287 78.4773C92.3537 78.4773 94.2344 78.8693 95.8707 79.6534C97.5185 80.4261 98.831 81.5227 99.8082 82.9432C100.786 84.3523 101.342 86 101.479 87.8864H95.581C95.3423 86.625 94.7741 85.5739 93.8764 84.733C92.9901 83.8807 91.8026 83.4545 90.3139 83.4545C89.0526 83.4545 87.9446 83.7955 86.9901 84.4773C86.0355 85.1477 85.2912 86.1136 84.7571 87.375C84.2344 88.6364 83.973 90.1477 83.973 91.9091C83.973 93.6932 84.2344 95.2273 84.7571 96.5114C85.2798 97.7841 86.0128 98.767 86.956 99.4602C87.9105 100.142 89.0298 100.483 90.3139 100.483C91.223 100.483 92.0355 100.312 92.7514 99.9716C93.4787 99.6193 94.0866 99.1136 94.5753 98.4545C95.0639 97.7955 95.3991 96.9943 95.581 96.0511H101.479C101.331 97.9034 100.786 99.5455 99.8423 100.977C98.8991 102.398 97.6151 103.511 95.9901 104.318C94.3651 105.114 92.456 105.511 90.2628 105.511ZM116.466 105.511C113.909 105.511 111.693 104.949 109.818 103.824C107.943 102.699 106.489 101.125 105.455 99.1023C104.432 97.0795 103.92 94.7159 103.92 92.0114C103.92 89.3068 104.432 86.9375 105.455 84.9034C106.489 82.8693 107.943 81.2898 109.818 80.1648C111.693 79.0398 113.909 78.4773 116.466 78.4773C119.023 78.4773 121.239 79.0398 123.114 80.1648C124.989 81.2898 126.438 82.8693 127.46 84.9034C128.494 86.9375 129.011 89.3068 129.011 92.0114C129.011 94.7159 128.494 97.0795 127.46 99.1023C126.438 101.125 124.989 102.699 123.114 103.824C121.239 104.949 119.023 105.511 116.466 105.511ZM116.5 100.568C117.886 100.568 119.045 100.187 119.977 99.4261C120.909 98.6534 121.602 97.6193 122.057 96.3239C122.523 95.0284 122.756 93.5852 122.756 91.9943C122.756 90.392 122.523 88.9432 122.057 87.6477C121.602 86.3409 120.909 85.3011 119.977 84.5284C119.045 83.7557 117.886 83.3693 116.5 83.3693C115.08 83.3693 113.898 83.7557 112.955 84.5284C112.023 85.3011 111.324 86.3409 110.858 87.6477C110.403 88.9432 110.176 90.392 110.176 91.9943C110.176 93.5852 110.403 95.0284 110.858 96.3239C111.324 97.6193 112.023 98.6534 112.955 99.4261C113.898 100.187 115.08 100.568 116.5 100.568ZM138.919 89.6591V105H132.749V78.8182H138.646V83.267H138.953C139.555 81.8011 140.516 80.6364 141.834 79.7727C143.163 78.9091 144.805 78.4773 146.76 78.4773C148.567 78.4773 150.141 78.8636 151.482 79.6364C152.834 80.4091 153.879 81.5284 154.618 82.9943C155.368 84.4602 155.737 86.2386 155.726 88.3295V105H149.555V89.2841C149.555 87.5341 149.101 86.1648 148.192 85.1761C147.294 84.1875 146.05 83.6932 144.459 83.6932C143.379 83.6932 142.419 83.9318 141.578 84.4091C140.749 84.875 140.095 85.5511 139.618 86.4375C139.152 87.3239 138.919 88.3977 138.919 89.6591ZM181.192 85.7386L175.567 86.3523C175.408 85.7841 175.129 85.25 174.732 84.75C174.345 84.25 173.822 83.8466 173.163 83.5398C172.504 83.233 171.697 83.0795 170.743 83.0795C169.459 83.0795 168.379 83.358 167.504 83.9148C166.641 84.4716 166.214 85.1932 166.226 86.0795C166.214 86.8409 166.493 87.4602 167.061 87.9375C167.641 88.4148 168.595 88.8068 169.925 89.1136L174.391 90.0682C176.868 90.6023 178.709 91.4489 179.913 92.608C181.129 93.767 181.743 95.2841 181.754 97.1591C181.743 98.8068 181.26 100.261 180.305 101.523C179.362 102.773 178.05 103.75 176.368 104.455C174.686 105.159 172.754 105.511 170.572 105.511C167.368 105.511 164.788 104.841 162.834 103.5C160.879 102.148 159.714 100.267 159.339 97.858L165.357 97.2784C165.629 98.4602 166.209 99.3523 167.095 99.9545C167.982 100.557 169.135 100.858 170.555 100.858C172.021 100.858 173.197 100.557 174.084 99.9545C174.982 99.3523 175.43 98.608 175.43 97.7216C175.43 96.9716 175.141 96.3523 174.561 95.8636C173.993 95.375 173.107 95 171.902 94.7386L167.436 93.8011C164.925 93.2784 163.067 92.3977 161.862 91.1591C160.658 89.9091 160.061 88.3295 160.072 86.4205C160.061 84.8068 160.499 83.4091 161.385 82.2273C162.283 81.0341 163.527 80.1136 165.118 79.4659C166.72 78.8068 168.567 78.4773 170.658 78.4773C173.726 78.4773 176.141 79.1307 177.902 80.4375C179.675 81.7443 180.771 83.5114 181.192 85.7386Z" fill="#020617"/>
</svg>
