<svg width="24" height="24" viewBox="0 0 24 24" fill="none" xmlns="http://www.w3.org/2000/svg">
<path d="M10.268 21C10.4435 21.304 10.696 21.5565 11 21.732C11.3041 21.9075 11.6489 21.9999 12 21.9999C12.3511 21.9999 12.6959 21.9075 13 21.732C13.304 21.5565 13.5565 21.304 13.732 21" stroke="#475569" stroke-width="1.5" stroke-linecap="round" stroke-linejoin="round"/>
<path d="M17 17H3.99999C3.80619 17.0001 3.61655 16.9438 3.45413 16.8381C3.2917 16.7324 3.1635 16.5817 3.0851 16.4045C3.00671 16.2273 2.9815 16.0311 3.01255 15.8398C3.0436 15.6485 3.12957 15.4703 3.25999 15.327C4.58999 13.956 5.99999 12.499 5.99999 8C5.99985 7.4098 6.08678 6.82281 6.25799 6.258" stroke="#475569" stroke-width="1.5" stroke-linecap="round" stroke-linejoin="round"/>
<path d="M2 2L22 22" stroke="#475569" stroke-width="1.5" stroke-linecap="round" stroke-linejoin="round"/>
<path d="M8.66803 3.00999C9.57151 2.40667 10.6219 2.05998 11.707 2.00692C12.7921 1.95385 13.8712 2.1964 14.8293 2.70869C15.7873 3.22097 16.5883 3.98376 17.1467 4.91566C17.7051 5.84755 18.0001 6.91359 18 7.99999C18 10.687 18.77 12.653 19.707 14.05" stroke="#475569" stroke-width="1.5" stroke-linecap="round" stroke-linejoin="round"/>
</svg>
