<svg width="24" height="24" viewBox="0 0 24 24" fill="none" xmlns="http://www.w3.org/2000/svg">
<path d="M20 14H4C2.89543 14 2 14.8954 2 16V20C2 21.1046 2.89543 22 4 22H20C21.1046 22 22 21.1046 22 20V16C22 14.8954 21.1046 14 20 14Z" stroke="#475569" stroke-width="1.5" stroke-linecap="round" stroke-linejoin="round"/>
<path d="M6.01 18H6" stroke="#475569" stroke-width="1.5" stroke-linecap="round" stroke-linejoin="round"/>
<path d="M10.01 18H10" stroke="#475569" stroke-width="1.5" stroke-linecap="round" stroke-linejoin="round"/>
<path d="M15 10V14" stroke="#475569" stroke-width="1.5" stroke-linecap="round" stroke-linejoin="round"/>
<path d="M17.84 7.16997C17.4685 6.79807 17.0273 6.50303 16.5418 6.30173C16.0562 6.10044 15.5357 5.99683 15.01 5.99683C14.4843 5.99683 13.9638 6.10044 13.4782 6.30173C12.9926 6.50303 12.5515 6.79807 12.18 7.16997" stroke="#475569" stroke-width="1.5" stroke-linecap="round" stroke-linejoin="round"/>
<path d="M20.66 4.34007C19.1599 2.84091 17.1258 1.99878 15.005 1.99878C12.8842 1.99878 10.8501 2.84091 9.35001 4.34007" stroke="#475569" stroke-width="1.5" stroke-linecap="round" stroke-linejoin="round"/>
</svg>
