<svg width="24" height="24" viewBox="0 0 24 24" fill="none" xmlns="http://www.w3.org/2000/svg">
<path d="M12 12H12.01" stroke="#475569" stroke-width="1.5" stroke-linecap="round" stroke-linejoin="round"/>
<path d="M7.49999 4.19989C7.19999 3.69989 6.59999 3.49989 6.19999 3.79989C3.89999 5.49989 2.29999 8.09989 1.99999 10.9999C1.89999 11.4999 2.39999 11.9999 2.99999 11.9999H7.99999C7.99999 10.4999 8.79999 9.19989 9.99999 8.59989C8.89999 6.69989 7.99999 5.09989 7.49999 4.19989Z" stroke="#475569" stroke-width="1.5" stroke-linecap="round" stroke-linejoin="round"/>
<path d="M21 12C21.6 12 22 11.6 22 11C21.7 8.09995 20.2 5.49995 17.9 3.89995C17.5 3.59995 16.8 3.69995 16.6 4.19995C16 5.09995 15.1 6.69995 14 8.49995C15.2 9.19995 16 10.5 16 12H21Z" stroke="#475569" stroke-width="1.5" stroke-linecap="round" stroke-linejoin="round"/>
<path d="M7.49999 19.8C7.19999 20.3 7.39999 20.9 7.89999 21.1C10.5 22.3 13.5 22.3 16.1 21.1C16.6 20.9 16.8 20.3 16.5 19.8C16 18.9 15.1 17.3 14 15.5C12.8 16.2 11.2 16.2 9.99999 15.5C8.89999 17.3 7.99999 18.9 7.49999 19.8Z" stroke="#475569" stroke-width="1.5" stroke-linecap="round" stroke-linejoin="round"/>
</svg>
