<svg width="24" height="24" viewBox="0 0 24 24" fill="none" xmlns="http://www.w3.org/2000/svg">
<path d="M13.5 3.1C13 3.1 12.5 3 12 3C11.5 3 11 3.1 10.5 3.1" stroke="#475569" stroke-width="1.5" stroke-linecap="round" stroke-linejoin="round"/>
<path d="M19.3 6.79995C18.7036 6.00355 17.9964 5.29641 17.2 4.69995" stroke="#475569" stroke-width="1.5" stroke-linecap="round" stroke-linejoin="round"/>
<path d="M20.9 13.5C21 13 21 12.5 21 12C21 11.5 20.9 11 20.9 10.5" stroke="#475569" stroke-width="1.5" stroke-linecap="round" stroke-linejoin="round"/>
<path d="M17.2 19.2999C17.9964 18.7035 18.7036 17.9964 19.3 17.2" stroke="#475569" stroke-width="1.5" stroke-linecap="round" stroke-linejoin="round"/>
<path d="M10.5 20.8999C11 20.9999 11.5 20.9999 12 20.9999C12.5 20.9999 13 20.8999 13.5 20.8999" stroke="#475569" stroke-width="1.5" stroke-linecap="round" stroke-linejoin="round"/>
<path d="M3.5 17.5L2 22L6.5 20.5" stroke="#475569" stroke-width="1.5" stroke-linecap="round" stroke-linejoin="round"/>
<path d="M3.1 10.5C3.1 11 3 11.5 3 12C3 12.5 3.1 13 3.1 13.5" stroke="#475569" stroke-width="1.5" stroke-linecap="round" stroke-linejoin="round"/>
<path d="M6.80001 4.69995C6.00361 5.29641 5.29647 6.00355 4.70001 6.79995" stroke="#475569" stroke-width="1.5" stroke-linecap="round" stroke-linejoin="round"/>
</svg>
