<svg width="24" height="24" viewBox="0 0 24 24" fill="none" xmlns="http://www.w3.org/2000/svg">
<path d="M2 2L22 22" stroke="#475569" stroke-width="1.5" stroke-linecap="round" stroke-linejoin="round"/>
<path d="M5.78201 5.78198C4.38828 6.50262 3.27706 7.6706 2.6267 9.09847C1.97635 10.5264 1.82456 12.1313 2.1957 13.6558C2.56685 15.1803 3.4394 16.5359 4.67333 17.505C5.90725 18.4742 7.43099 19.0006 9.00001 19H17.5C17.9428 19.0003 18.3832 18.9353 18.807 18.807" stroke="#475569" stroke-width="1.5" stroke-linecap="round" stroke-linejoin="round"/>
<path d="M21.532 16.4999C21.8724 15.8138 22.0321 15.0521 21.9958 14.287C21.9596 13.5219 21.7287 12.7788 21.3249 12.1279C20.9212 11.477 20.3579 10.9399 19.6886 10.5675C19.0193 10.1952 18.2659 9.9998 17.5 9.99995H15.71C15.3275 8.71922 14.5867 7.5746 13.575 6.70108C12.5632 5.82757 11.3228 5.26161 10 5.06995" stroke="#475569" stroke-width="1.5" stroke-linecap="round" stroke-linejoin="round"/>
</svg>
