<svg width="24" height="24" viewBox="0 0 24 24" fill="none" xmlns="http://www.w3.org/2000/svg">
<path d="M12 2V7" stroke="#475569" stroke-width="1.5" stroke-linecap="round" stroke-linejoin="round"/>
<path d="M14.829 15.998C14.9887 16.4505 15.0375 16.9346 14.9714 17.4099C14.9053 17.8851 14.7261 18.3375 14.449 18.7292C14.1719 19.1209 13.8048 19.4403 13.3787 19.6608C12.9526 19.8813 12.4798 19.9964 12 19.9964C11.5202 19.9964 11.0474 19.8813 10.6213 19.6608C10.1952 19.4403 9.82813 19.1209 9.55101 18.7292C9.27389 18.3375 9.09475 17.8851 9.02863 17.4099C8.9625 16.9346 9.01133 16.4505 9.171 15.998" stroke="#475569" stroke-width="1.5" stroke-linecap="round" stroke-linejoin="round"/>
<path d="M20.92 14.606C20.9852 14.7582 21.0116 14.9242 20.9969 15.0891C20.9821 15.254 20.9267 15.4126 20.8355 15.5508C20.7443 15.689 20.6202 15.8024 20.4744 15.8808C20.3286 15.9592 20.1655 16.0001 20 16H3.99997C3.83441 16.0001 3.6714 15.9592 3.52557 15.8808C3.37974 15.8024 3.25566 15.689 3.16446 15.5508C3.07327 15.4126 3.01781 15.254 3.00306 15.0891C2.98831 14.9242 3.01474 14.7582 3.07997 14.606L6.07997 7.606C6.15714 7.426 6.28545 7.27262 6.449 7.16489C6.61255 7.05716 6.80413 6.99983 6.99997 7H17C17.1958 6.99983 17.3874 7.05716 17.5509 7.16489C17.7145 7.27262 17.8428 7.426 17.92 7.606L20.92 14.606Z" stroke="#475569" stroke-width="1.5" stroke-linecap="round" stroke-linejoin="round"/>
</svg>
