<svg width="24" height="24" viewBox="0 0 24 24" fill="none" xmlns="http://www.w3.org/2000/svg">
<path d="M19.929 18.629C19.9896 18.7808 20.0121 18.9451 19.9945 19.1075C19.977 19.27 19.9199 19.4257 19.8282 19.561C19.7365 19.6962 19.6131 19.807 19.4687 19.8835C19.3243 19.9601 19.1634 20.0001 19 20H8.99998C8.83665 19.9999 8.67583 19.9598 8.53158 19.8832C8.38733 19.8066 8.26404 19.6958 8.17248 19.5605C8.08093 19.4253 8.0239 19.2697 8.00638 19.1073C7.98886 18.9449 8.01138 18.7807 8.07198 18.629L10.072 13.629C10.1461 13.4434 10.2741 13.2843 10.4395 13.1722C10.605 13.0601 10.8002 13.0001 11 13H17C17.1998 13.0001 17.395 13.0601 17.5604 13.1722C17.7258 13.2843 17.8538 13.4434 17.928 13.629L19.929 18.629Z" stroke="#475569" stroke-width="1.5" stroke-linecap="round" stroke-linejoin="round"/>
<path d="M6 3C6.53043 3 7.03914 3.21071 7.41421 3.58579C7.78929 3.96086 8 4.46957 8 5V7C8 7.53043 7.78929 8.03914 7.41421 8.41421C7.03914 8.78929 6.53043 9 6 9H5C4.73478 9 4.48043 8.89464 4.29289 8.70711C4.10536 8.51957 4 8.26522 4 8V4C4 3.73478 4.10536 3.48043 4.29289 3.29289C4.48043 3.10536 4.73478 3 5 3H6Z" stroke="#475569" stroke-width="1.5" stroke-linecap="round" stroke-linejoin="round"/>
<path d="M8 6H12C12.5304 6 13.0391 6.21071 13.4142 6.58579C13.7893 6.96086 14 7.46957 14 8V13" stroke="#475569" stroke-width="1.5" stroke-linecap="round" stroke-linejoin="round"/>
</svg>
