<svg width="24" height="24" viewBox="0 0 24 24" fill="none" xmlns="http://www.w3.org/2000/svg">
<path d="M10.1 2.18005C11.3548 1.93543 12.6451 1.93543 13.9 2.18005" stroke="#475569" stroke-width="1.5" stroke-linecap="round" stroke-linejoin="round"/>
<path d="M17.6 3.70996C18.6622 4.42822 19.5757 5.34503 20.29 6.40996" stroke="#475569" stroke-width="1.5" stroke-linecap="round" stroke-linejoin="round"/>
<path d="M21.8199 10.1C22.0646 11.3548 22.0646 12.6451 21.8199 13.9" stroke="#475569" stroke-width="1.5" stroke-linecap="round" stroke-linejoin="round"/>
<path d="M20.29 17.6C19.5717 18.6622 18.6549 19.5757 17.59 20.29" stroke="#475569" stroke-width="1.5" stroke-linecap="round" stroke-linejoin="round"/>
<path d="M13.9 21.8199C12.6451 22.0643 11.3549 22.0643 10.1 21.8199" stroke="#475569" stroke-width="1.5" stroke-linecap="round" stroke-linejoin="round"/>
<path d="M6.39996 20.29C5.33769 19.5717 4.42427 18.6549 3.70996 17.59" stroke="#475569" stroke-width="1.5" stroke-linecap="round" stroke-linejoin="round"/>
<path d="M2.18005 13.9C1.93543 12.6451 1.93543 11.3548 2.18005 10.1" stroke="#475569" stroke-width="1.5" stroke-linecap="round" stroke-linejoin="round"/>
<path d="M3.70996 6.39996C4.42822 5.33769 5.34503 4.42427 6.40996 3.70996" stroke="#475569" stroke-width="1.5" stroke-linecap="round" stroke-linejoin="round"/>
<path d="M12 13C12.5523 13 13 12.5523 13 12C13 11.4477 12.5523 11 12 11C11.4477 11 11 11.4477 11 12C11 12.5523 11.4477 13 12 13Z" stroke="#475569" stroke-width="1.5" stroke-linecap="round" stroke-linejoin="round"/>
</svg>
