<svg width="24" height="24" viewBox="0 0 24 24" fill="none" xmlns="http://www.w3.org/2000/svg">
<path d="M20.9999 21H7.99994C7.73624 21.0006 7.47502 20.949 7.23132 20.8483C6.98762 20.7475 6.76624 20.5996 6.57994 20.413L2.58594 16.4139C2.211 16.0389 2.00037 15.5303 2.00037 15C2.00037 14.4696 2.211 13.961 2.58594 13.586L12.5859 3.58595C12.7717 3.40015 12.9922 3.25276 13.2349 3.1522C13.4776 3.05164 13.7377 2.99988 14.0004 2.99988C14.2632 2.99988 14.5233 3.05164 14.766 3.1522C15.0087 3.25276 15.2292 3.40015 15.4149 3.58595L21.4139 9.58595C21.7889 9.96101 21.9995 10.4696 21.9995 11C21.9995 11.5303 21.7889 12.0389 21.4139 12.4139L12.8339 21" stroke="#475569" stroke-width="1.5" stroke-linecap="round" stroke-linejoin="round"/>
<path d="M5.08203 11.09L13.91 19.918" stroke="#475569" stroke-width="1.5" stroke-linecap="round" stroke-linejoin="round"/>
</svg>
