<svg width="24" height="24" viewBox="0 0 24 24" fill="none" xmlns="http://www.w3.org/2000/svg">
<path d="M13.73 3.99987C13.5542 3.6968 13.3019 3.44522 12.9983 3.27034C12.6946 3.09547 12.3504 3.00342 12 3.00342C11.6496 3.00342 11.3054 3.09547 11.0018 3.27034C10.6982 3.44522 10.4458 3.6968 10.27 3.99987L2.27003 17.9999C2.09458 18.3038 2.00217 18.6485 2.00208 18.9994C2.00199 19.3503 2.09422 19.695 2.26951 19.999C2.44481 20.303 2.69699 20.5555 3.00074 20.7312C3.3045 20.9068 3.64913 20.9995 4.00003 20.9999H20C20.3509 20.9995 20.6956 20.9068 20.9993 20.7312C21.3031 20.5555 21.5552 20.303 21.7305 19.999C21.9058 19.695 21.9981 19.3503 21.998 18.9994C21.9979 18.6485 21.9055 18.3038 21.73 17.9999L13.73 3.99987Z" stroke="#475569" stroke-width="1.5" stroke-linecap="round" stroke-linejoin="round"/>
</svg>
