<svg width="24" height="24" viewBox="0 0 24 24" fill="none" xmlns="http://www.w3.org/2000/svg">
<path d="M21 17.0001C20.9984 15.2634 20.4944 13.5643 19.5487 12.1076C18.6031 10.651 17.2562 9.49907 15.6705 8.79079C14.0848 8.08252 12.3281 7.84815 10.6121 8.11596C8.89623 8.38377 7.29445 9.14232 6 10.3001L3 13.0001" stroke="#475569" stroke-width="1.5" stroke-linecap="round" stroke-linejoin="round"/>
<path d="M3 7V13H9" stroke="#475569" stroke-width="1.5" stroke-linecap="round" stroke-linejoin="round"/>
<path d="M12 18C12.5523 18 13 17.5523 13 17C13 16.4477 12.5523 16 12 16C11.4477 16 11 16.4477 11 17C11 17.5523 11.4477 18 12 18Z" stroke="#475569" stroke-width="1.5" stroke-linecap="round" stroke-linejoin="round"/>
</svg>
