<svg width="24" height="24" viewBox="0 0 24 24" fill="none" xmlns="http://www.w3.org/2000/svg">
<path d="M15.536 11.293C15.3485 11.4805 15.2432 11.7348 15.2432 12C15.2432 12.2651 15.3485 12.5194 15.536 12.707L17.912 15.084C18.0995 15.2714 18.3538 15.3767 18.619 15.3767C18.8842 15.3767 19.1385 15.2714 19.326 15.084L21.703 12.707C21.8905 12.5194 21.9958 12.2651 21.9958 12C21.9958 11.7348 21.8905 11.4805 21.703 11.293L19.326 8.91596C19.1385 8.72848 18.8842 8.62317 18.619 8.62317C18.3538 8.62317 18.0995 8.72848 17.912 8.91596L15.536 11.293Z" stroke="#475569" stroke-width="1.5" stroke-linecap="round" stroke-linejoin="round"/>
<path d="M2.297 11.293C2.10953 11.4805 2.00421 11.7348 2.00421 12C2.00421 12.2651 2.10953 12.5194 2.297 12.707L4.674 15.084C4.86153 15.2714 5.11583 15.3767 5.381 15.3767C5.64616 15.3767 5.90047 15.2714 6.088 15.084L8.465 12.707C8.65247 12.5194 8.75778 12.2651 8.75778 12C8.75778 11.7348 8.65247 11.4805 8.465 11.293L6.088 8.91596C5.90047 8.72848 5.64616 8.62317 5.381 8.62317C5.11583 8.62317 4.86153 8.72848 4.674 8.91596L2.297 11.293Z" stroke="#475569" stroke-width="1.5" stroke-linecap="round" stroke-linejoin="round"/>
<path d="M8.916 17.912C8.82302 18.0048 8.74926 18.1151 8.69894 18.2365C8.64861 18.3579 8.62271 18.488 8.62271 18.6194C8.62271 18.7509 8.64861 18.881 8.69894 19.0024C8.74926 19.1238 8.82302 19.2341 8.916 19.327L11.293 21.7029C11.4805 21.8904 11.7348 21.9957 12 21.9957C12.2652 21.9957 12.5195 21.8904 12.707 21.7029L15.084 19.327C15.177 19.2341 15.2507 19.1238 15.3011 19.0024C15.3514 18.881 15.3773 18.7509 15.3773 18.6194C15.3773 18.488 15.3514 18.3579 15.3011 18.2365C15.2507 18.1151 15.177 18.0048 15.084 17.912L12.707 15.536C12.5195 15.3485 12.2652 15.2432 12 15.2432C11.7348 15.2432 11.4805 15.3485 11.293 15.536L8.916 17.912Z" stroke="#475569" stroke-width="1.5" stroke-linecap="round" stroke-linejoin="round"/>
<path d="M8.91599 4.67406C8.72851 4.86159 8.6232 5.11589 8.6232 5.38106C8.6232 5.64622 8.72851 5.90053 8.91599 6.08806L11.293 8.46406C11.4805 8.65153 11.7348 8.75685 12 8.75685C12.2651 8.75685 12.5195 8.65153 12.707 8.46406L15.084 6.08806C15.2715 5.90053 15.3768 5.64622 15.3768 5.38106C15.3768 5.11589 15.2715 4.86159 15.084 4.67406L12.707 2.29706C12.5195 2.10959 12.2651 2.00427 12 2.00427C11.7348 2.00427 11.4805 2.10959 11.293 2.29706L8.91599 4.67406Z" stroke="#475569" stroke-width="1.5" stroke-linecap="round" stroke-linejoin="round"/>
</svg>
