<svg width="24" height="24" viewBox="0 0 24 24" fill="none" xmlns="http://www.w3.org/2000/svg">
<path d="M21.64 3.6398L20.36 2.3598C20.2475 2.24612 20.1135 2.15587 19.9659 2.09428C19.8183 2.03269 19.6599 2.00098 19.5 2.00098C19.34 2.00098 19.1817 2.03269 19.0341 2.09428C18.8864 2.15587 18.7525 2.24612 18.64 2.3598L2.35998 18.6398C2.2463 18.7523 2.15605 18.8863 2.09446 19.0339C2.03287 19.1815 2.00116 19.3399 2.00116 19.4998C2.00116 19.6598 2.03287 19.8181 2.09446 19.9657C2.15605 20.1133 2.2463 20.2473 2.35998 20.3598L3.63998 21.6398C3.7518 21.7547 3.88552 21.846 4.03323 21.9084C4.18094 21.9708 4.33965 22.0029 4.49998 22.0029C4.66032 22.0029 4.81903 21.9708 4.96674 21.9084C5.11445 21.846 5.24816 21.7547 5.35998 21.6398L21.64 5.3598C21.7549 5.24798 21.8462 5.11427 21.9086 4.96656C21.971 4.81885 22.0031 4.66014 22.0031 4.4998C22.0031 4.33947 21.971 4.18076 21.9086 4.03305C21.8462 3.88534 21.7549 3.75162 21.64 3.6398Z" stroke="#475569" stroke-width="1.5" stroke-linecap="round" stroke-linejoin="round"/>
<path d="M14 7L17 10" stroke="#475569" stroke-width="1.5" stroke-linecap="round" stroke-linejoin="round"/>
<path d="M5 6V10" stroke="#475569" stroke-width="1.5" stroke-linecap="round" stroke-linejoin="round"/>
<path d="M19 14V18" stroke="#475569" stroke-width="1.5" stroke-linecap="round" stroke-linejoin="round"/>
<path d="M10 2V4" stroke="#475569" stroke-width="1.5" stroke-linecap="round" stroke-linejoin="round"/>
<path d="M7 8H3" stroke="#475569" stroke-width="1.5" stroke-linecap="round" stroke-linejoin="round"/>
<path d="M21 16H17" stroke="#475569" stroke-width="1.5" stroke-linecap="round" stroke-linejoin="round"/>
<path d="M11 3H9" stroke="#475569" stroke-width="1.5" stroke-linecap="round" stroke-linejoin="round"/>
</svg>
