<svg width="24" height="24" viewBox="0 0 24 24" fill="none" xmlns="http://www.w3.org/2000/svg">
<path d="M11.246 16.657C11.3399 16.7648 11.4557 16.8512 11.5858 16.9104C11.7159 16.9695 11.8571 17.0002 12 17.0002C12.1429 17.0002 12.2841 16.9695 12.4142 16.9104C12.5443 16.8512 12.6601 16.7648 12.754 16.657L16.324 12.556C16.5681 12.2745 16.7524 11.9463 16.8658 11.5913C16.9792 11.2364 17.0192 10.8621 16.9835 10.4912C16.9478 10.1202 16.8371 9.76046 16.6581 9.43364C16.4791 9.10682 16.2356 8.81979 15.9423 8.58997C15.6489 8.36015 15.312 8.19234 14.9518 8.09672C14.5917 8.0011 14.2159 7.97967 13.8472 8.03374C13.4785 8.0878 13.1247 8.21622 12.8071 8.41121C12.4896 8.60621 12.215 8.86369 12 9.16805C11.785 8.86369 11.5104 8.60621 11.1929 8.41121C10.8754 8.21622 10.5215 8.0878 10.1528 8.03374C9.78415 7.97967 9.40832 8.0011 9.04818 8.09672C8.68803 8.19234 8.35107 8.36015 8.05776 8.58997C7.76444 8.81979 7.5209 9.10682 7.3419 9.43364C7.16291 9.76046 7.0522 10.1202 7.0165 10.4912C6.9808 10.8621 7.02085 11.2364 7.13422 11.5913C7.24759 11.9463 7.43191 12.2745 7.67601 12.556L11.246 16.657Z" stroke="#475569" stroke-width="1.5" stroke-linecap="round" stroke-linejoin="round"/>
<path d="M17 3H19C19.5304 3 20.0391 3.21071 20.4142 3.58579C20.7893 3.96086 21 4.46957 21 5V7" stroke="#475569" stroke-width="1.5" stroke-linecap="round" stroke-linejoin="round"/>
<path d="M21 17V19C21 19.5304 20.7893 20.0391 20.4142 20.4142C20.0391 20.7893 19.5304 21 19 21H17" stroke="#475569" stroke-width="1.5" stroke-linecap="round" stroke-linejoin="round"/>
<path d="M3 7V5C3 4.46957 3.21071 3.96086 3.58579 3.58579C3.96086 3.21071 4.46957 3 5 3H7" stroke="#475569" stroke-width="1.5" stroke-linecap="round" stroke-linejoin="round"/>
<path d="M7 21H5C4.46957 21 3.96086 20.7893 3.58579 20.4142C3.21071 20.0391 3 19.5304 3 19V17" stroke="#475569" stroke-width="1.5" stroke-linecap="round" stroke-linejoin="round"/>
</svg>
