<svg width="24" height="24" viewBox="0 0 24 24" fill="none" xmlns="http://www.w3.org/2000/svg">
<path d="M15 7.13V6C14.9995 5.40461 14.8219 4.82282 14.4897 4.32871C14.1575 3.8346 13.6858 3.4505 13.1346 3.22532C12.5835 3.00013 11.9778 2.94404 11.3946 3.06419C10.8115 3.18434 10.2773 3.47529 9.86 3.9L8 2" stroke="#475569" stroke-width="1.5" stroke-linecap="round" stroke-linejoin="round"/>
<path d="M14.12 3.88L16 2" stroke="#475569" stroke-width="1.5" stroke-linecap="round" stroke-linejoin="round"/>
<path d="M22 13H18V11C18 9.93913 17.5786 8.92172 16.8284 8.17157C16.0783 7.42143 15.0609 7 14 7H12.7" stroke="#475569" stroke-width="1.5" stroke-linecap="round" stroke-linejoin="round"/>
<path d="M20.97 5C20.97 7.1 19.37 8.8 17.47 9" stroke="#475569" stroke-width="1.5" stroke-linecap="round" stroke-linejoin="round"/>
<path d="M2 2L22 22" stroke="#475569" stroke-width="1.5" stroke-linecap="round" stroke-linejoin="round"/>
<path d="M7.69997 7.70001C7.17102 8.07174 6.74005 8.56614 6.44398 9.14087C6.14791 9.71559 5.99556 10.3535 5.99997 11V14C5.99598 15.3113 6.42165 16.5877 7.21186 17.6341C8.00208 18.6805 9.11333 19.4393 10.3756 19.7942C11.6379 20.1492 12.9817 20.0809 14.2015 19.5998C15.4213 19.1186 16.4499 18.2511 17.13 17.13" stroke="#475569" stroke-width="1.5" stroke-linecap="round" stroke-linejoin="round"/>
<path d="M12 20V12" stroke="#475569" stroke-width="1.5" stroke-linecap="round" stroke-linejoin="round"/>
<path d="M6 13H2" stroke="#475569" stroke-width="1.5" stroke-linecap="round" stroke-linejoin="round"/>
<path d="M3 21C3 18.9 4.7 17.1 6.8 17" stroke="#475569" stroke-width="1.5" stroke-linecap="round" stroke-linejoin="round"/>
</svg>
