<svg width="24" height="24" viewBox="0 0 24 24" fill="none" xmlns="http://www.w3.org/2000/svg">
<path d="M13.228 21.925C11.1988 22.1762 9.14137 21.7993 7.33299 20.8451C5.52462 19.8909 4.0522 18.4053 3.11415 16.5885C2.17609 14.7718 1.8175 12.7111 2.08668 10.6842C2.35587 8.65734 3.2399 6.7617 4.61964 5.25273C5.99938 3.74377 7.80852 2.69401 9.80326 2.24492C11.798 1.79584 13.8825 1.969 15.7757 2.74109C17.669 3.51318 19.2801 4.84707 20.392 6.56302C21.5038 8.27898 22.0629 10.2945 21.994 12.338" stroke="#475569" stroke-width="1.5" stroke-linecap="round" stroke-linejoin="round"/>
<path d="M12 6V12L13.562 12.781" stroke="#475569" stroke-width="1.5" stroke-linecap="round" stroke-linejoin="round"/>
<path d="M14 18L18 14L22 18" stroke="#475569" stroke-width="1.5" stroke-linecap="round" stroke-linejoin="round"/>
<path d="M18 22V14" stroke="#475569" stroke-width="1.5" stroke-linecap="round" stroke-linejoin="round"/>
</svg>
