<svg width="24" height="24" viewBox="0 0 24 24" fill="none" xmlns="http://www.w3.org/2000/svg">
<path d="M10.852 14.772L10.469 15.695" stroke="#475569" stroke-width="1.5" stroke-linecap="round" stroke-linejoin="round"/>
<path d="M13.148 14.7719C13.512 14.6212 13.8428 14.4002 14.1214 14.1216C14.4 13.843 14.6211 13.5123 14.7719 13.1483C14.9227 12.7843 15.0003 12.3941 15.0003 12.0001C15.0003 11.6061 14.9228 11.216 14.772 10.8519C14.6212 10.4879 14.4003 10.1571 14.1217 9.87852C13.8431 9.5999 13.5123 9.37888 13.1483 9.22807C12.7843 9.07727 12.3942 8.99964 12.0002 8.99962C11.6062 8.99959 11.216 9.07717 10.852 9.22793L10.469 8.30493" stroke="#475569" stroke-width="1.5" stroke-linecap="round" stroke-linejoin="round"/>
<path d="M13.1479 9.22793L13.5309 8.30493" stroke="#475569" stroke-width="1.5" stroke-linecap="round" stroke-linejoin="round"/>
<path d="M13.5299 15.696L13.1479 14.772C12.7839 14.9228 12.3938 15.0004 11.9998 15.0003C11.6058 15.0003 11.2156 14.9227 10.8516 14.7719C10.4876 14.6211 10.1569 14.4001 9.87827 14.1214C9.59969 13.8428 9.37871 13.5121 9.22795 13.148C9.07719 12.784 8.99961 12.3938 8.99963 11.9998C8.99966 11.6058 9.07729 11.2157 9.22809 10.8517C9.37889 10.4877 9.59991 10.1569 9.87854 9.87835C10.1572 9.59977 10.4879 9.37878 10.8519 9.22803" stroke="#475569" stroke-width="1.5" stroke-linecap="round" stroke-linejoin="round"/>
<path d="M14.772 10.852L15.695 10.469" stroke="#475569" stroke-width="1.5" stroke-linecap="round" stroke-linejoin="round"/>
<path d="M14.772 13.1479L15.695 13.5309" stroke="#475569" stroke-width="1.5" stroke-linecap="round" stroke-linejoin="round"/>
<path d="M4.5 10H4C3.46957 10 2.96086 9.78929 2.58579 9.41421C2.21071 9.03914 2 8.53043 2 8V4C2 3.46957 2.21071 2.96086 2.58579 2.58579C2.96086 2.21071 3.46957 2 4 2H20C20.5304 2 21.0391 2.21071 21.4142 2.58579C21.7893 2.96086 22 3.46957 22 4V8C22 8.53043 21.7893 9.03914 21.4142 9.41421C21.0391 9.78929 20.5304 10 20 10H19.5" stroke="#475569" stroke-width="1.5" stroke-linecap="round" stroke-linejoin="round"/>
<path d="M4.5 14H4C3.46957 14 2.96086 14.2107 2.58579 14.5858C2.21071 14.9609 2 15.4696 2 16V20C2 20.5304 2.21071 21.0391 2.58579 21.4142C2.96086 21.7893 3.46957 22 4 22H20C20.5304 22 21.0391 21.7893 21.4142 21.4142C21.7893 21.0391 22 20.5304 22 20V16C22 15.4696 21.7893 14.9609 21.4142 14.5858C21.0391 14.2107 20.5304 14 20 14H19.5" stroke="#475569" stroke-width="1.5" stroke-linecap="round" stroke-linejoin="round"/>
<path d="M6 18H6.01" stroke="#475569" stroke-width="1.5" stroke-linecap="round" stroke-linejoin="round"/>
<path d="M6 6H6.01" stroke="#475569" stroke-width="1.5" stroke-linecap="round" stroke-linejoin="round"/>
<path d="M9.22805 10.852L8.30505 10.469" stroke="#475569" stroke-width="1.5" stroke-linecap="round" stroke-linejoin="round"/>
<path d="M9.22805 13.1479L8.30505 13.5309" stroke="#475569" stroke-width="1.5" stroke-linecap="round" stroke-linejoin="round"/>
</svg>
