<svg width="24" height="24" viewBox="0 0 24 24" fill="none" xmlns="http://www.w3.org/2000/svg">
<path d="M17.28 9.05001C17.5191 8.23032 17.564 7.36622 17.4113 6.52614C17.2585 5.68606 16.9123 4.89309 16.4 4.21001C15.8877 3.52693 15.2234 2.97251 14.4596 2.59066C13.6959 2.20881 12.8538 2.01001 12 2.01001C11.1461 2.01001 10.304 2.20881 9.5403 2.59066C8.77659 2.97251 8.11228 3.52693 7.59997 4.21001C7.08766 4.89309 6.74143 5.68606 6.58869 6.52614C6.43595 7.36622 6.4809 8.23032 6.71997 9.05001C5.81796 9.17968 4.9623 9.53144 4.22989 10.0737C3.49749 10.6159 2.9113 11.3317 2.524 12.1565C2.1367 12.9814 1.96044 13.8896 2.01105 14.7995C2.06167 15.7094 2.33757 16.5924 2.81396 17.3693C3.29036 18.1461 3.95231 18.7924 4.74034 19.2501C5.52836 19.7078 6.41776 19.9625 7.32859 19.9913C8.23942 20.0201 9.14314 19.8222 9.95852 19.4153C10.7739 19.0083 11.4754 18.4052 12 17.66C12.5232 18.4072 13.2241 19.0125 14.0395 19.4215C14.8549 19.8304 15.7592 20.0302 16.671 20.0027C17.5827 19.9752 18.4734 19.7213 19.2626 19.264C20.0519 18.8067 20.715 18.1602 21.1923 17.3828C21.6696 16.6055 21.946 15.7216 21.9967 14.8108C22.0474 13.9 21.8707 12.9909 21.4827 12.1654C21.0946 11.3398 20.5073 10.6238 19.7737 10.0817C19.04 9.53961 18.1831 9.18851 17.28 9.06001V9.05001Z" stroke="#475569" stroke-width="1.5" stroke-linecap="round" stroke-linejoin="round"/>
<path d="M12 17.66V22" stroke="#475569" stroke-width="1.5" stroke-linecap="round" stroke-linejoin="round"/>
</svg>
