<svg width="24" height="24" viewBox="0 0 24 24" fill="none" xmlns="http://www.w3.org/2000/svg">
<path d="M20 4H4C2.89543 4 2 4.89543 2 6V18C2 19.1046 2.89543 20 4 20H20C21.1046 20 22 19.1046 22 18V6C22 4.89543 21.1046 4 20 4Z" stroke="#475569" stroke-width="1.5" stroke-linecap="round" stroke-linejoin="round"/>
<path d="M8 12C9.10457 12 10 11.1046 10 10C10 8.89543 9.10457 8 8 8C6.89543 8 6 8.89543 6 10C6 11.1046 6.89543 12 8 12Z" stroke="#475569" stroke-width="1.5" stroke-linecap="round" stroke-linejoin="round"/>
<path d="M8 12H16" stroke="#475569" stroke-width="1.5" stroke-linecap="round" stroke-linejoin="round"/>
<path d="M16 12C17.1046 12 18 11.1046 18 10C18 8.89543 17.1046 8 16 8C14.8954 8 14 8.89543 14 10C14 11.1046 14.8954 12 16 12Z" stroke="#475569" stroke-width="1.5" stroke-linecap="round" stroke-linejoin="round"/>
<path d="M6 20L6.7 17.1C6.76952 16.7827 6.9472 16.4994 7.20261 16.2988C7.45802 16.0981 7.77527 15.9925 8.1 16H15.9C16.2114 15.9871 16.5181 16.0784 16.7717 16.2596C17.0253 16.4407 17.2112 16.7013 17.3 17L18 20" stroke="#475569" stroke-width="1.5" stroke-linecap="round" stroke-linejoin="round"/>
</svg>
