<svg width="24" height="24" viewBox="0 0 24 24" fill="none" xmlns="http://www.w3.org/2000/svg">
<path d="M10.188 8.5C10.5206 7.21165 11.2721 6.07042 12.3242 5.25581C13.3763 4.4412 14.6694 3.99944 16 4C15.2043 4.79565 14.7573 5.87478 14.7573 7C14.7573 7.55715 14.8671 8.10885 15.0803 8.62359C15.2935 9.13833 15.606 9.60603 16 10C16.394 10.394 16.8617 10.7065 17.3764 10.9197C17.8911 11.1329 18.4428 11.2426 19 11.2426C20.1252 11.2426 21.2043 10.7956 22 10C22.0001 11.0534 21.723 12.0882 21.1964 13.0005C20.6697 13.9128 19.9122 14.6703 19 15.197" stroke="#475569" stroke-width="1.5" stroke-linecap="round" stroke-linejoin="round"/>
<path d="M13 16C13.7956 16 14.5587 16.3161 15.1213 16.8787C15.6839 17.4413 16 18.2044 16 19C16 19.7956 15.6839 20.5587 15.1213 21.1213C14.5587 21.6839 13.7956 22 13 22H6.99999C6.05396 21.9998 5.1274 21.7312 4.32791 21.2255C3.52843 20.7197 2.88884 19.9975 2.48342 19.1427C2.078 18.288 1.92339 17.3358 2.03755 16.3966C2.15171 15.4575 2.52995 14.5701 3.12835 13.8373C3.72675 13.1046 4.52074 12.5567 5.41811 12.2572C6.31548 11.9577 7.27941 11.9189 8.19793 12.1454C9.11646 12.3718 9.95189 12.8542 10.6072 13.5366C11.2625 14.2189 11.7108 15.0731 11.9 16H13Z" stroke="#475569" stroke-width="1.5" stroke-linecap="round" stroke-linejoin="round"/>
</svg>
