<svg width="24" height="24" viewBox="0 0 24 24" fill="none" xmlns="http://www.w3.org/2000/svg">
<path d="M2.03405 2.68093C1.998 2.59049 1.98926 2.49147 2.00889 2.39611C2.02852 2.30075 2.07568 2.21324 2.14452 2.1444C2.21336 2.07555 2.30087 2.0284 2.39623 2.00877C2.49159 1.98913 2.59061 1.99788 2.68105 2.03393L11.6811 5.53393C11.7779 5.57143 11.8607 5.63816 11.9179 5.72485C11.9751 5.81153 12.0038 5.91388 12.0002 6.01767C11.9966 6.12146 11.9607 6.22154 11.8976 6.30402C11.8345 6.3865 11.7473 6.44729 11.6481 6.47793L8.20405 7.54493C8.04866 7.59297 7.90734 7.6782 7.79233 7.7932C7.67732 7.90821 7.5921 8.04954 7.54405 8.20493L6.47805 11.6479C6.44741 11.7472 6.38662 11.8344 6.30414 11.8975C6.22166 11.9606 6.12158 11.9965 6.01779 12.0001C5.914 12.0037 5.81165 11.9749 5.72497 11.9177C5.63828 11.8605 5.57155 11.7778 5.53405 11.6809L2.03405 2.68093Z" stroke="#475569" stroke-width="1.5" stroke-linecap="round" stroke-linejoin="round"/>
<path d="M16 22C19.3137 22 22 19.3137 22 16C22 12.6863 19.3137 10 16 10C12.6863 10 10 12.6863 10 16C10 19.3137 12.6863 22 16 22Z" stroke="#475569" stroke-width="1.5" stroke-linecap="round" stroke-linejoin="round"/>
<path d="M11.8 11.8L20.2 20.2" stroke="#475569" stroke-width="1.5" stroke-linecap="round" stroke-linejoin="round"/>
</svg>
