<svg width="24" height="24" viewBox="0 0 24 24" fill="none" xmlns="http://www.w3.org/2000/svg">
<path d="M11 11C11.6491 11.8655 12 12.9181 12 14C12 15.0819 11.6491 16.1345 11 17" stroke="#475569" stroke-width="1.5" stroke-linecap="round" stroke-linejoin="round"/>
<path d="M14 2V6C14 6.53043 14.2107 7.03914 14.5858 7.41421C14.9609 7.78929 15.4696 8 16 8H20" stroke="#475569" stroke-width="1.5" stroke-linecap="round" stroke-linejoin="round"/>
<path d="M4 6.765V4C4 3.46957 4.21071 2.96086 4.58579 2.58579C4.96086 2.21071 5.46957 2 6 2H15L20 7V20C20 20.5304 19.7893 21.0391 19.4142 21.4142C19.0391 21.7893 18.5304 22 18 22H6C5.67594 21.9998 5.35679 21.9209 5.07 21.77" stroke="#475569" stroke-width="1.5" stroke-linecap="round" stroke-linejoin="round"/>
<path d="M7 10.51C7.00017 10.4143 6.97284 10.3205 6.92124 10.2398C6.86965 10.1591 6.79597 10.0949 6.70897 10.0549C6.62197 10.0149 6.5253 10.0007 6.43047 10.014C6.33563 10.0273 6.24661 10.0676 6.174 10.13L4.281 11.758C4.09988 11.9139 3.86894 11.9997 3.63 12H2.5C2.36739 12 2.24021 12.0527 2.14645 12.1465C2.05268 12.2403 2 12.3674 2 12.5V15.5C2 15.6327 2.05268 15.7598 2.14645 15.8536C2.24021 15.9474 2.36739 16 2.5 16H3.629C3.86829 16.0001 4.09962 16.086 4.281 16.242L6.174 17.872C6.24661 17.9345 6.33563 17.9748 6.43047 17.9881C6.5253 18.0014 6.62197 17.9872 6.70897 17.9472C6.79597 17.9071 6.86965 17.843 6.92124 17.7623C6.97284 17.6816 7.00017 17.5878 7 17.492V10.51Z" stroke="#475569" stroke-width="1.5" stroke-linecap="round" stroke-linejoin="round"/>
</svg>
