<svg width="24" height="24" viewBox="0 0 24 24" fill="none" xmlns="http://www.w3.org/2000/svg">
<path d="M11 12H11.01" stroke="#475569" stroke-width="1.5" stroke-linecap="round" stroke-linejoin="round"/>
<path d="M13 22C13.5 21.5 14.12 21 15.5 21C14.12 21 13.5 20.5 13 20" stroke="#475569" stroke-width="1.5" stroke-linecap="round" stroke-linejoin="round"/>
<path d="M14 2C13.705 2.58915 13.2393 3.07578 12.6637 3.39649C12.0881 3.7172 11.4293 3.85711 10.773 3.798L4.60301 3.237C4.28087 3.20601 3.95579 3.24086 3.64754 3.33941C3.33928 3.43797 3.05429 3.59817 2.80988 3.8103C2.56546 4.02242 2.36674 4.28203 2.22578 4.57335C2.08482 4.86466 2.00457 5.1816 1.98991 5.50489C1.97525 5.82819 2.02648 6.15109 2.14049 6.45397C2.25451 6.75685 2.42892 7.03338 2.65313 7.26675C2.87734 7.50013 3.14666 7.68548 3.44473 7.81153C3.7428 7.93758 4.06339 8.0017 4.38701 8H15.5C17.2239 8 18.8772 8.68482 20.0962 9.90381C21.3152 11.1228 22 12.7761 22 14.5C22 16.2239 21.3152 17.8772 20.0962 19.0962C18.8772 20.3152 17.2239 21 15.5 21C16.1631 21 16.7989 20.7366 17.2678 20.2678C17.7366 19.7989 18 19.163 18 18.5C18 17.837 17.7366 17.2011 17.2678 16.7322C16.7989 16.2634 16.1631 16 15.5 16H12C10.1435 16 8.36302 15.2625 7.05026 13.9497C5.73751 12.637 5.00001 10.8565 5.00001 9V8" stroke="#475569" stroke-width="1.5" stroke-linecap="round" stroke-linejoin="round"/>
<path d="M14 8C14.6566 9.23106 15 10.6048 15 12C15 13.3952 14.6566 14.7689 14 16" stroke="#475569" stroke-width="1.5" stroke-linecap="round" stroke-linejoin="round"/>
<path d="M16 16C18 16 20.5 12 20 10" stroke="#475569" stroke-width="1.5" stroke-linecap="round" stroke-linejoin="round"/>
</svg>
