<svg width="24" height="24" viewBox="0 0 24 24" fill="none" xmlns="http://www.w3.org/2000/svg">
<path d="M2 2L22 22" stroke="#475569" stroke-width="1.5" stroke-linecap="round" stroke-linejoin="round"/>
<path d="M8.34998 2.69002C10.1606 1.98284 12.1381 1.8187 14.0405 2.21766C15.943 2.61663 17.6879 3.5614 19.0618 4.93643C20.4358 6.31145 21.3792 8.0571 21.7767 9.95985C22.1742 11.8626 22.0085 13.8399 21.3 15.65" stroke="#475569" stroke-width="1.5" stroke-linecap="round" stroke-linejoin="round"/>
<path d="M19.0801 19.08C18.1503 20.0098 17.0465 20.7473 15.8317 21.2505C14.6169 21.7537 13.3149 22.0127 12.0001 22.0127C10.6852 22.0127 9.38318 21.7537 8.16839 21.2505C6.9536 20.7473 5.84982 20.0098 4.92006 19.08C3.9903 18.1503 3.25277 17.0465 2.74959 15.8317C2.24641 14.6169 1.98743 13.3149 1.98743 12C1.98743 10.6852 2.24641 9.38316 2.74959 8.16838C3.25277 6.95359 3.9903 5.8498 4.92006 4.92004" stroke="#475569" stroke-width="1.5" stroke-linecap="round" stroke-linejoin="round"/>
</svg>
