<svg width="24" height="24" viewBox="0 0 24 24" fill="none" xmlns="http://www.w3.org/2000/svg">
<path d="M21.66 17.67C21.7692 17.774 21.8554 17.8997 21.913 18.039C21.9706 18.1783 21.9984 18.3282 21.9947 18.4789C21.9909 18.6296 21.9556 18.7778 21.8911 18.9141C21.8266 19.0503 21.7343 19.1716 21.62 19.27C19.3175 21.1624 16.3931 22.1301 13.4162 21.9849C10.4394 21.8397 7.62305 20.5919 5.51558 18.4845C3.40812 16.377 2.16032 13.5607 2.01512 10.5838C1.86991 7.60695 2.83769 4.68257 4.73005 2.38C4.83021 2.26686 4.95261 2.17558 5.08961 2.11183C5.22661 2.04808 5.37528 2.01325 5.52634 2.00949C5.6774 2.00574 5.82761 2.03315 5.96761 2.09002C6.10761 2.14688 6.23439 2.23198 6.34005 2.34L21.66 17.67Z" stroke="#475569" stroke-width="1.5" stroke-linecap="round" stroke-linejoin="round"/>
<path d="M19.65 15.66C18.1363 17.0956 16.1216 17.8831 14.0355 17.8546C11.9494 17.8261 9.95697 16.9837 8.48304 15.5072C7.00912 14.0307 6.17031 12.0368 6.14547 9.95064C6.12062 7.8645 6.9117 5.85118 8.35003 4.33997" stroke="#475569" stroke-width="1.5" stroke-linecap="round" stroke-linejoin="round"/>
<path d="M14 10L8.5 15.5" stroke="#475569" stroke-width="1.5" stroke-linecap="round" stroke-linejoin="round"/>
<path d="M14 17.85V10H6.15002" stroke="#475569" stroke-width="1.5" stroke-linecap="round" stroke-linejoin="round"/>
</svg>
