<svg width="24" height="24" viewBox="0 0 24 24" fill="none" xmlns="http://www.w3.org/2000/svg">
<path d="M10.852 19.772L10.469 20.696" stroke="#475569" stroke-width="1.5" stroke-linecap="round" stroke-linejoin="round"/>
<path d="M13.1479 14.2281L13.5309 13.3051" stroke="#475569" stroke-width="1.5" stroke-linecap="round" stroke-linejoin="round"/>
<path d="M13.148 19.7721C13.512 19.6213 13.8428 19.4003 14.1214 19.1217C14.4 18.8431 14.6211 18.5124 14.7719 18.1484C14.9227 17.7844 15.0003 17.3942 15.0003 17.0002C15.0003 16.6062 14.9228 16.2161 14.772 15.8521C14.6212 15.488 14.4003 15.1573 14.1217 14.8786C13.8431 14.6 13.5123 14.379 13.1483 14.2282C12.7843 14.0774 12.3942 13.9998 12.0002 13.9997C11.6062 13.9997 11.216 14.0773 10.852 14.2281L10.469 13.3051" stroke="#475569" stroke-width="1.5" stroke-linecap="round" stroke-linejoin="round"/>
<path d="M13.5299 20.696L13.1479 19.772C12.4128 20.0765 11.5867 20.0764 10.8516 19.7719C10.1165 19.4673 9.53242 18.8832 9.22795 18.148C8.92348 17.4128 8.92353 16.5868 9.22809 15.8517C9.53265 15.1165 10.1168 14.5325 10.8519 14.228" stroke="#475569" stroke-width="1.5" stroke-linecap="round" stroke-linejoin="round"/>
<path d="M14.772 15.852L15.695 15.469" stroke="#475569" stroke-width="1.5" stroke-linecap="round" stroke-linejoin="round"/>
<path d="M14.772 18.1479L15.695 18.5309" stroke="#475569" stroke-width="1.5" stroke-linecap="round" stroke-linejoin="round"/>
<path d="M4.20002 15.1C3.51694 14.456 2.97035 13.6813 2.5928 12.8218C2.21524 11.9623 2.01442 11.0356 2.00229 10.0969C1.99016 9.15823 2.16697 8.2267 2.52219 7.35773C2.87741 6.48877 3.40379 5.70013 4.07 5.03875C4.73622 4.37736 5.52867 3.85673 6.40019 3.50785C7.27172 3.15896 8.20452 2.98894 9.14309 3.0079C10.0817 3.02686 11.0068 3.23441 11.8636 3.61822C12.7203 4.00202 13.4911 4.55422 14.13 5.24198C14.8612 6.02799 15.4018 6.97165 15.71 7.99998H17.5C18.4539 8.01284 19.379 8.3285 20.1418 8.90139C20.9046 9.47428 21.4656 10.2748 21.7438 11.1873C22.022 12.0997 22.003 13.077 21.6896 13.978C21.3761 14.8791 20.7845 15.6571 20 16.2" stroke="#475569" stroke-width="1.5" stroke-linecap="round" stroke-linejoin="round"/>
<path d="M9.22805 15.852L8.30505 15.469" stroke="#475569" stroke-width="1.5" stroke-linecap="round" stroke-linejoin="round"/>
<path d="M9.22805 18.1479L8.30505 18.5309" stroke="#475569" stroke-width="1.5" stroke-linecap="round" stroke-linejoin="round"/>
</svg>
