<svg width="24" height="24" viewBox="0 0 24 24" fill="none" xmlns="http://www.w3.org/2000/svg">
<path d="M19 21C20.1046 21 21 20.1046 21 19C21 17.8954 20.1046 17 19 17C17.8954 17 17 17.8954 17 19C17 20.1046 17.8954 21 19 21Z" stroke="#475569" stroke-width="1.5" stroke-linecap="round" stroke-linejoin="round"/>
<path d="M5 7C6.10457 7 7 6.10457 7 5C7 3.89543 6.10457 3 5 3C3.89543 3 3 3.89543 3 5C3 6.10457 3.89543 7 5 7Z" stroke="#475569" stroke-width="1.5" stroke-linecap="round" stroke-linejoin="round"/>
<path d="M6.47998 3.65999C8.40307 2.38539 10.7077 1.81495 13.0033 2.04538C15.299 2.2758 17.4443 3.29291 19.0757 4.92431C20.7071 6.55571 21.7242 8.70102 21.9546 10.9966C22.185 13.2922 21.6146 15.5969 20.34 17.52" stroke="#475569" stroke-width="1.5" stroke-linecap="round" stroke-linejoin="round"/>
<path d="M6.41003 6.41003L17.59 17.59" stroke="#475569" stroke-width="1.5" stroke-linecap="round" stroke-linejoin="round"/>
<path d="M3.65999 6.47998C2.38539 8.40307 1.81495 10.7077 2.04538 13.0033C2.2758 15.299 3.29291 17.4443 4.92431 19.0757C6.55571 20.7071 8.70102 21.7242 10.9966 21.9546C13.2922 22.185 15.5969 21.6146 17.52 20.34" stroke="#475569" stroke-width="1.5" stroke-linecap="round" stroke-linejoin="round"/>
</svg>
