<svg width="24" height="24" viewBox="0 0 24 24" fill="none" xmlns="http://www.w3.org/2000/svg">
<path d="M12 12V16" stroke="#475569" stroke-width="1.5" stroke-linecap="round" stroke-linejoin="round"/>
<path d="M12 20H12.01" stroke="#475569" stroke-width="1.5" stroke-linecap="round" stroke-linejoin="round"/>
<path d="M17 18H17.5C18.6935 18 19.8381 17.5259 20.682 16.682C21.5259 15.8381 22 14.6935 22 13.5C22 12.3065 21.5259 11.1619 20.682 10.318C19.8381 9.47411 18.6935 9 17.5 9H15.71C15.3637 7.83847 14.7216 6.78679 13.8468 5.94789C12.9719 5.10899 11.8943 4.51163 10.7192 4.21428C9.54419 3.91693 8.31208 3.92978 7.1435 4.25158C5.97493 4.57337 4.90994 5.19308 4.05277 6.05005C3.19561 6.90702 2.57565 7.97187 2.25359 9.14037C1.93153 10.3089 1.91839 11.541 2.21547 12.7161C2.51255 13.8912 3.10966 14.969 3.94836 15.844C4.78706 16.7191 5.8386 17.3614 7.00005 17.708" stroke="#475569" stroke-width="1.5" stroke-linecap="round" stroke-linejoin="round"/>
</svg>
