<svg width="24" height="24" viewBox="0 0 24 24" fill="none" xmlns="http://www.w3.org/2000/svg">
<path d="M13 16C13.5795 15.9992 14.1467 16.1663 14.6333 16.481C15.1198 16.7958 15.5048 17.2446 15.7417 17.7735C15.9787 18.3023 16.0573 18.8884 15.9683 19.461C15.8793 20.0336 15.6263 20.5681 15.24 21" stroke="#475569" stroke-width="1.5" stroke-linecap="round" stroke-linejoin="round"/>
<path d="M18 12H18.01" stroke="#475569" stroke-width="1.5" stroke-linecap="round" stroke-linejoin="round"/>
<path d="M18 20.9999H10C8.93913 20.9999 7.92172 20.5785 7.17157 19.8283C6.42143 19.0782 6 18.0608 6 16.9999C6 15.1434 6.7375 13.3629 8.05025 12.0502C9.36301 10.7374 11.1435 9.99992 13 9.99992H13.2L9.6 6.39992C9.41615 6.21607 9.27031 5.99781 9.17081 5.75759C9.07131 5.51738 9.0201 5.25992 9.0201 4.99992C9.0201 4.47482 9.2287 3.97122 9.6 3.59992C9.9713 3.22862 10.4749 3.02002 11 3.02002C11.26 3.02002 11.5175 3.07123 11.7577 3.17073C11.9979 3.27023 12.2161 3.41607 12.4 3.59992L15.8 6.99992H16C19.3 6.99992 22 9.69992 22 12.9999V13.9999C22 14.5304 21.7893 15.0391 21.4142 15.4141C21.0391 15.7892 20.5304 15.9999 20 15.9999H19C18.2044 15.9999 17.4413 16.316 16.8787 16.8786C16.3161 17.4412 16 18.2043 16 18.9999" stroke="#475569" stroke-width="1.5" stroke-linecap="round" stroke-linejoin="round"/>
<path d="M20 8.54V4C20 3.46957 19.7893 2.96086 19.4142 2.58579C19.0391 2.21071 18.5304 2 18 2C17.4696 2 16.9609 2.21071 16.5858 2.58579C16.2107 2.96086 16 3.46957 16 4V7" stroke="#475569" stroke-width="1.5" stroke-linecap="round" stroke-linejoin="round"/>
<path d="M7.612 12.524C7.33081 12.0263 6.91329 11.6193 6.40859 11.351C5.9039 11.0826 5.33304 10.964 4.76322 11.0091C4.19339 11.0543 3.64832 11.2613 3.19217 11.6057C2.73602 11.9502 2.38778 12.4178 2.18844 12.9536C1.9891 13.4893 1.94696 14.0708 2.06698 14.6297C2.18701 15.1885 2.46419 15.7015 2.86591 16.1081C3.26763 16.5148 3.77717 16.7982 4.33453 16.925C4.8919 17.0518 5.47389 17.0168 6.012 16.8239" stroke="#475569" stroke-width="1.5" stroke-linecap="round" stroke-linejoin="round"/>
</svg>
