<svg width="24" height="24" viewBox="0 0 24 24" fill="none" xmlns="http://www.w3.org/2000/svg">
<path d="M11.9 12.0999L16.414 7.58594" stroke="#475569" stroke-width="1.5" stroke-linecap="round" stroke-linejoin="round"/>
<path d="M20.1 2.30002C19.9131 2.11679 19.6618 2.01416 19.4 2.01416C19.1382 2.01416 18.8869 2.11679 18.7 2.30002L17.586 3.41402C17.2109 3.789 17.0001 4.29763 17 4.82802V6.17202C16.9999 6.70241 16.7891 7.21103 16.414 7.58602C16.789 7.21092 17.2976 7.00013 17.828 7.00002H19.172C19.7024 6.9999 20.211 6.78912 20.586 6.41402L21.7 5.30002C21.8832 5.11309 21.9859 4.86177 21.9859 4.60002C21.9859 4.33826 21.8832 4.08695 21.7 3.90002L20.1 2.30002Z" stroke="#475569" stroke-width="1.5" stroke-linecap="round" stroke-linejoin="round"/>
<path d="M6 16L8 18" stroke="#475569" stroke-width="1.5" stroke-linecap="round" stroke-linejoin="round"/>
<path d="M8.23 9.85C8.45726 9.30244 8.84165 8.8345 9.33465 8.50524C9.82765 8.17597 10.4072 8.00016 11 8C12.3261 8 13.5979 8.52678 14.5355 9.46447C15.4732 10.4021 16 11.6739 16 13C15.9998 13.5928 15.824 14.1723 15.4948 14.6653C15.1655 15.1583 14.6976 15.5427 14.15 15.77L13.23 16.15C12.8651 16.3022 12.5534 16.5592 12.3345 16.8885C12.1156 17.2178 11.9992 17.6046 12 18C12 19.0609 11.5786 20.0783 10.8284 20.8284C10.0783 21.5786 9.06087 22 8 22C6.4087 22 4.88258 21.3679 3.75736 20.2426C2.63214 19.1174 2 17.5913 2 16C2 14.9391 2.42143 13.9217 3.17157 13.1716C3.92172 12.4214 4.93913 12 6 12C6.39542 12.0008 6.78221 11.8844 7.11149 11.6655C7.44077 11.4466 7.69776 11.1349 7.85 10.77L8.23 9.85Z" stroke="#475569" stroke-width="1.5" stroke-linecap="round" stroke-linejoin="round"/>
</svg>
