<svg width="24" height="24" viewBox="0 0 24 24" fill="none" xmlns="http://www.w3.org/2000/svg">
<path d="M20.341 6.48389C21.4198 8.11454 21.9969 10.0257 22.001 11.9809C22.005 13.9361 21.4358 15.8496 20.3637 17.4847C19.2916 19.1198 17.7637 20.4047 15.969 21.1806C14.1743 21.9564 12.1916 22.1891 10.266 21.8499" stroke="#475569" stroke-width="1.5" stroke-linecap="round" stroke-linejoin="round"/>
<path d="M3.659 17.5161C2.58019 15.885 2.0033 13.9734 1.99971 12.0179C1.99612 10.0623 2.56599 8.1486 3.63881 6.51357C4.71163 4.87854 6.2403 3.59395 8.03566 2.81875C9.83102 2.04356 11.8143 1.81179 13.74 2.15211" stroke="#475569" stroke-width="1.5" stroke-linecap="round" stroke-linejoin="round"/>
<path d="M12 15C13.6569 15 15 13.6569 15 12C15 10.3431 13.6569 9 12 9C10.3431 9 9 10.3431 9 12C9 13.6569 10.3431 15 12 15Z" stroke="#475569" stroke-width="1.5" stroke-linecap="round" stroke-linejoin="round"/>
<path d="M19 7C20.1046 7 21 6.10457 21 5C21 3.89543 20.1046 3 19 3C17.8954 3 17 3.89543 17 5C17 6.10457 17.8954 7 19 7Z" stroke="#475569" stroke-width="1.5" stroke-linecap="round" stroke-linejoin="round"/>
<path d="M5 21C6.10457 21 7 20.1046 7 19C7 17.8954 6.10457 17 5 17C3.89543 17 3 17.8954 3 19C3 20.1046 3.89543 21 5 21Z" stroke="#475569" stroke-width="1.5" stroke-linecap="round" stroke-linejoin="round"/>
</svg>
