<svg width="24" height="24" viewBox="0 0 24 24" fill="none" xmlns="http://www.w3.org/2000/svg">
<path d="M11 7.60107L5.00603 15.7911C4.86499 15.9837 4.79754 16.2205 4.81588 16.4586C4.83422 16.6966 4.93714 16.9203 5.10603 17.0891L5.92303 17.9071C6.09438 18.0782 6.32202 18.1814 6.56369 18.1974C6.80535 18.2134 7.04461 18.1412 7.23703 17.9941L15.09 12.0001" stroke="#475569" stroke-width="1.5" stroke-linecap="round" stroke-linejoin="round"/>
<path d="M16.5 21.174C15.5 20.5 14.372 20 13 20C10.942 20 9.07198 22.356 6.99998 22C4.92798 21.644 4.22498 18.631 5.49998 17.5" stroke="#475569" stroke-width="1.5" stroke-linecap="round" stroke-linejoin="round"/>
<path d="M16 12C18.7614 12 21 9.76142 21 7C21 4.23858 18.7614 2 16 2C13.2386 2 11 4.23858 11 7C11 9.76142 13.2386 12 16 12Z" stroke="#475569" stroke-width="1.5" stroke-linecap="round" stroke-linejoin="round"/>
</svg>
