<svg width="24" height="24" viewBox="0 0 24 24" fill="none" xmlns="http://www.w3.org/2000/svg">
<path d="M10 10L3.843 16.162C3.6104 16.3944 3.43867 16.6805 3.343 16.995L2.021 21.355C1.99478 21.4415 1.9925 21.5335 2.0144 21.6212C2.03631 21.7089 2.08157 21.789 2.14538 21.853C2.2092 21.917 2.28917 21.9626 2.37679 21.9847C2.46442 22.0069 2.55641 22.0049 2.643 21.979L7.001 20.656C7.31447 20.5599 7.5995 20.3882 7.831 20.156L14 13.982" stroke="#475569" stroke-width="1.5" stroke-linecap="round" stroke-linejoin="round"/>
<path d="M12.829 7.17202L17.188 2.82602C17.4497 2.56429 17.7604 2.35668 18.1024 2.21504C18.4444 2.07339 18.8109 2.00049 19.181 2.00049C19.5511 2.00049 19.9176 2.07339 20.2596 2.21504C20.6016 2.35668 20.9123 2.56429 21.174 2.82602C21.4357 3.08774 21.6433 3.39845 21.785 3.74041C21.9266 4.08237 21.9995 4.44888 21.9995 4.81902C21.9995 5.18915 21.9266 5.55566 21.785 5.89762C21.6433 6.23958 21.4357 6.55029 21.174 6.81202L16.821 11.165" stroke="#475569" stroke-width="1.5" stroke-linecap="round" stroke-linejoin="round"/>
<path d="M15 5L19 9" stroke="#475569" stroke-width="1.5" stroke-linecap="round" stroke-linejoin="round"/>
<path d="M2 2L22 22" stroke="#475569" stroke-width="1.5" stroke-linecap="round" stroke-linejoin="round"/>
</svg>
