<svg width="24" height="24" viewBox="0 0 24 24" fill="none" xmlns="http://www.w3.org/2000/svg">
<path d="M6.5 12C7.44 8.54 11.44 6 15 6C18.56 6 21.06 8.54 22 12C21.06 15.47 18.56 18 15 18C11.44 18 7.44 15.47 6.5 12Z" stroke="#475569" stroke-width="1.5" stroke-linecap="round" stroke-linejoin="round"/>
<path d="M18 12V12.5" stroke="#475569" stroke-width="1.5" stroke-linecap="round" stroke-linejoin="round"/>
<path d="M16 17.9299C14.6992 16.2267 13.9945 14.1431 13.9945 11.9999C13.9945 9.85682 14.6992 7.77316 16 6.06995" stroke="#475569" stroke-width="1.5" stroke-linecap="round" stroke-linejoin="round"/>
<path d="M7 10.67C7 8 5.58 5.97 2.73 5.5C1.73 7 1.73 10.5 2.96 12C1.72 13.5 1.72 17 2.73 18.5C5.58 18.03 7 16 7 13.33" stroke="#475569" stroke-width="1.5" stroke-linecap="round" stroke-linejoin="round"/>
<path d="M10.46 7.26001C10.2 5.88001 9.17 4.24001 8 3.00001H13.8C14.2745 2.99826 14.7342 3.16526 15.0969 3.47118C15.4596 3.7771 15.7017 4.20202 15.78 4.67001L16.01 6.07001" stroke="#475569" stroke-width="1.5" stroke-linecap="round" stroke-linejoin="round"/>
<path d="M16.01 17.93L15.78 19.33C15.7017 19.798 15.4596 20.2229 15.0969 20.5289C14.7342 20.8348 14.2745 21.0018 13.8 21H9.5C10.4689 19.9015 10.9993 18.4847 10.99 17.02" stroke="#475569" stroke-width="1.5" stroke-linecap="round" stroke-linejoin="round"/>
</svg>
