<svg width="24" height="24" viewBox="0 0 24 24" fill="none" xmlns="http://www.w3.org/2000/svg">
<path d="M10.733 5.07599C13.0624 4.7984 15.4186 5.29081 17.4419 6.47804C19.4651 7.66527 21.0442 9.48207 21.938 11.651C22.0213 11.8755 22.0213 12.1225 21.938 12.347C21.5705 13.238 21.0848 14.0755 20.494 14.837" stroke="#475569" stroke-width="1.5" stroke-linecap="round" stroke-linejoin="round"/>
<path d="M14.084 14.158C13.5182 14.7045 12.7604 15.0069 11.9738 15C11.1872 14.9932 10.4348 14.6777 9.87856 14.1215C9.32233 13.5652 9.00683 12.8128 8.99999 12.0262C8.99316 11.2396 9.29554 10.4818 9.84201 9.91602" stroke="#475569" stroke-width="1.5" stroke-linecap="round" stroke-linejoin="round"/>
<path d="M17.479 17.499C16.1525 18.2848 14.6724 18.7761 13.1393 18.9394C11.6062 19.1028 10.0559 18.9345 8.59362 18.4459C7.1313 17.9573 5.79118 17.1599 4.6642 16.1078C3.53722 15.0556 2.64974 13.7734 2.06199 12.348C1.97865 12.1235 1.97865 11.8765 2.06199 11.652C2.94862 9.50189 4.50866 7.69728 6.50799 6.50903" stroke="#475569" stroke-width="1.5" stroke-linecap="round" stroke-linejoin="round"/>
<path d="M2 2L22 22" stroke="#475569" stroke-width="1.5" stroke-linecap="round" stroke-linejoin="round"/>
</svg>
