<svg width="24" height="24" viewBox="0 0 24 24" fill="none" xmlns="http://www.w3.org/2000/svg">
<path d="M7 3.33997V4.99997C7 5.79562 7.31607 6.55868 7.87868 7.12129C8.44129 7.6839 9.20435 7.99997 10 7.99997" stroke="#475569" stroke-width="1.5" stroke-linecap="round" stroke-linejoin="round"/>
<path d="M11 21.95V18C11 17.4696 10.7893 16.9609 10.4143 16.5858C10.0392 16.2107 9.53048 16 9.00005 16C8.46962 16 7.96091 15.7893 7.58584 15.4142C7.21076 15.0391 7.00005 14.5304 7.00005 14V13C7.00005 12.4696 6.78934 11.9609 6.41426 11.5858C6.03919 11.2107 5.53048 11 5.00005 11H2.05005" stroke="#475569" stroke-width="1.5" stroke-linecap="round" stroke-linejoin="round"/>
<path d="M21.54 15H17C16.4696 15 15.9609 15.2107 15.5858 15.5858C15.2107 15.9609 15 16.4696 15 17V21.54" stroke="#475569" stroke-width="1.5" stroke-linecap="round" stroke-linejoin="round"/>
<path d="M12 2C10.1518 2.00011 8.33976 2.51243 6.76509 3.48007C5.19042 4.4477 3.91472 5.83281 3.07962 7.4816C2.24453 9.1304 1.8827 10.9784 2.03432 12.8204C2.18594 14.6623 2.84507 16.4263 3.93854 17.9163C5.032 19.4064 6.51702 20.5642 8.22872 21.2614C9.94042 21.9585 11.8118 22.1676 13.6352 21.8655C15.4586 21.5634 17.1625 20.7619 18.5579 19.55C19.9533 18.338 20.9855 16.7631 21.54 15" stroke="#475569" stroke-width="1.5" stroke-linecap="round" stroke-linejoin="round"/>
<path d="M20 6V4C20 3.46957 19.7893 2.96086 19.4142 2.58579C19.0391 2.21071 18.5304 2 18 2C17.4696 2 16.9609 2.21071 16.5858 2.58579C16.2107 2.96086 16 3.46957 16 4V6" stroke="#475569" stroke-width="1.5" stroke-linecap="round" stroke-linejoin="round"/>
<path d="M21 6H15C14.4477 6 14 6.44772 14 7V10C14 10.5523 14.4477 11 15 11H21C21.5523 11 22 10.5523 22 10V7C22 6.44772 21.5523 6 21 6Z" stroke="#475569" stroke-width="1.5" stroke-linecap="round" stroke-linejoin="round"/>
</svg>
