<svg width="24" height="24" viewBox="0 0 24 24" fill="none" xmlns="http://www.w3.org/2000/svg">
<path d="M12 13.9C13.1046 13.9 14 13.0046 14 11.9C14 10.7955 13.1046 9.90002 12 9.90002C10.8954 9.90002 10 10.7955 10 11.9C10 13.0046 10.8954 13.9 12 13.9Z" stroke="#475569" stroke-width="1.5" stroke-linecap="round" stroke-linejoin="round"/>
<path d="M6.7 3.40002C5.8 5.90002 6.7 8.60002 8.9 10.1C6.5 9.00002 3.7 9.60003 2 11.6" stroke="#475569" stroke-width="1.5" stroke-linecap="round" stroke-linejoin="round"/>
<path d="M8.90002 10.1L10.3 10.9" stroke="#475569" stroke-width="1.5" stroke-linecap="round" stroke-linejoin="round"/>
<path d="M17.3 3.40002C18.2 5.90002 17.3 8.60002 15.1 10.1C17.5 8.90002 20.3 9.50003 22 11.6" stroke="#475569" stroke-width="1.5" stroke-linecap="round" stroke-linejoin="round"/>
<path d="M15.1 10.1L13.7 10.9" stroke="#475569" stroke-width="1.5" stroke-linecap="round" stroke-linejoin="round"/>
<path d="M16.7 20.8C14.1 20.4 12.1 18.2 12 15.5C11.8 18.1 9.90005 20.3 7.30005 20.7" stroke="#475569" stroke-width="1.5" stroke-linecap="round" stroke-linejoin="round"/>
<path d="M12 13.9V15.5" stroke="#475569" stroke-width="1.5" stroke-linecap="round" stroke-linejoin="round"/>
<path d="M13.5 5.4C12.5 5.2 11.5 5.2 10.5 5.4" stroke="#475569" stroke-width="1.5" stroke-linecap="round" stroke-linejoin="round"/>
<path d="M17 16.4C17.7 15.7 18.2 14.8 18.5 13.9" stroke="#475569" stroke-width="1.5" stroke-linecap="round" stroke-linejoin="round"/>
<path d="M5.5 13.9C5.8 14.8 6.3 15.7 7 16.4" stroke="#475569" stroke-width="1.5" stroke-linecap="round" stroke-linejoin="round"/>
</svg>
