<svg width="24" height="24" viewBox="0 0 24 24" fill="none" xmlns="http://www.w3.org/2000/svg">
<path d="M13 7.00005L8.7 2.70005C8.24838 2.2506 7.63715 1.99829 7 1.99829C6.36285 1.99829 5.75162 2.2506 5.3 2.70005L2.7 5.30005C2.25056 5.75167 1.99825 6.36289 1.99825 7.00005C1.99825 7.6372 2.25056 8.24842 2.7 8.70005L7 13" stroke="#475569" stroke-width="1.5" stroke-linecap="round" stroke-linejoin="round"/>
<path d="M8 6L10 4" stroke="#475569" stroke-width="1.5" stroke-linecap="round" stroke-linejoin="round"/>
<path d="M18 16L20 14" stroke="#475569" stroke-width="1.5" stroke-linecap="round" stroke-linejoin="round"/>
<path d="M17 11L21.3 15.3C22.24 16.24 22.24 17.76 21.3 18.7L18.7 21.3C17.76 22.24 16.24 22.24 15.3 21.3L11 17" stroke="#475569" stroke-width="1.5" stroke-linecap="round" stroke-linejoin="round"/>
<path d="M21.174 6.81189C21.7027 6.28332 21.9998 5.56636 21.9999 4.81875C22 4.07113 21.7031 3.3541 21.1745 2.82539C20.6459 2.29668 19.929 1.99961 19.1813 1.99951C18.4337 1.99942 17.7167 2.29632 17.188 2.82489L3.842 16.1739C3.60981 16.4054 3.43811 16.6904 3.342 17.0039L2.021 21.3559C1.99515 21.4424 1.9932 21.5342 2.01535 21.6217C2.03749 21.7092 2.08292 21.7891 2.14679 21.8529C2.21067 21.9167 2.29062 21.962 2.37815 21.984C2.46569 22.006 2.55755 22.0039 2.644 21.9779L6.997 20.6579C7.31017 20.5626 7.59517 20.392 7.827 20.1609L21.174 6.81189Z" stroke="#475569" stroke-width="1.5" stroke-linecap="round" stroke-linejoin="round"/>
<path d="M15 5L19 9" stroke="#475569" stroke-width="1.5" stroke-linecap="round" stroke-linejoin="round"/>
</svg>
