<svg width="24" height="24" viewBox="0 0 24 24" fill="none" xmlns="http://www.w3.org/2000/svg">
<path d="M17 6C18.1046 6 19 5.10457 19 4C19 2.89543 18.1046 2 17 2C15.8954 2 15 2.89543 15 4C15 5.10457 15.8954 6 17 6Z" stroke="#475569" stroke-width="1.5" stroke-linecap="round" stroke-linejoin="round"/>
<path d="M15.59 5.41016L5.41 15.5902" stroke="#475569" stroke-width="1.5" stroke-linecap="round" stroke-linejoin="round"/>
<path d="M4 19C5.10457 19 6 18.1046 6 17C6 15.8954 5.10457 15 4 15C2.89543 15 2 15.8954 2 17C2 18.1046 2.89543 19 4 19Z" stroke="#475569" stroke-width="1.5" stroke-linecap="round" stroke-linejoin="round"/>
<path d="M12 22.0002C12 22.0002 8 13.0002 10.5 10.5002C13 8.00022 22 12.0002 22 12.0002" stroke="#475569" stroke-width="1.5" stroke-linecap="round" stroke-linejoin="round"/>
</svg>
