<svg width="24" height="24" viewBox="0 0 24 24" fill="none" xmlns="http://www.w3.org/2000/svg">
<path d="M10 7V17.9" stroke="#475569" stroke-width="1.5" stroke-linecap="round" stroke-linejoin="round"/>
<path d="M14 6.09998V17" stroke="#475569" stroke-width="1.5" stroke-linecap="round" stroke-linejoin="round"/>
<path d="M16 7.00003V3.00003C16 2.80228 16.0587 2.60898 16.1686 2.44457C16.2785 2.28016 16.4346 2.15202 16.6173 2.07635C16.8 2.00068 17.0011 1.98088 17.195 2.01945C17.389 2.05802 17.5671 2.15322 17.707 2.29303C17.9838 2.57375 18.323 2.78504 18.697 2.90964C19.071 3.03425 19.4692 3.06865 19.859 3.01003C20.0126 2.98815 20.1692 3.00233 20.3164 3.05143C20.4636 3.10053 20.5974 3.18321 20.7071 3.29294C20.8168 3.40266 20.8995 3.53641 20.9486 3.68361C20.9977 3.8308 21.0119 3.98741 20.99 4.14103C20.9314 4.53086 20.9658 4.92903 21.0904 5.30303C21.215 5.67703 21.4263 6.01626 21.707 6.29303C21.8468 6.43288 21.942 6.61105 21.9806 6.805C22.0192 6.99895 21.9993 7.19999 21.9237 7.38269C21.848 7.56539 21.7199 7.72155 21.5555 7.83143C21.391 7.94132 21.1978 7.99999 21 8.00003H17" stroke="#475569" stroke-width="1.5" stroke-linecap="round" stroke-linejoin="round"/>
<path d="M16.5361 7.46505C16.0717 7.00062 15.5205 6.63221 14.9138 6.38085C14.3071 6.12949 13.6568 6.00012 13.0001 6.00012C12.3433 6.00012 11.693 6.12949 11.0863 6.38085C10.4796 6.63221 9.92836 7.00062 9.46405 7.46505L7.46405 9.46505C6.5267 10.4027 6.00012 11.6742 6.00012 13.0001C6.00012 14.3259 6.5267 15.5974 7.46405 16.5351C7.92836 16.9995 8.47962 17.3679 9.08633 17.6193C9.69305 17.8706 10.3433 18 11.0001 18C11.6568 18 12.3071 17.8706 12.9138 17.6193C13.5205 17.3679 14.0717 16.9995 14.5361 16.5351L16.5361 14.5351C17.4734 13.5974 18 12.3259 18 11.0001C18 9.67423 17.4734 8.40269 16.5361 7.46505Z" stroke="#475569" stroke-width="1.5" stroke-linecap="round" stroke-linejoin="round"/>
<path d="M8.00003 17V21C7.99999 21.1978 7.94132 21.391 7.83143 21.5555C7.72155 21.7199 7.56539 21.848 7.38269 21.9237C7.19999 21.9993 6.99895 22.0192 6.805 21.9806C6.61105 21.942 6.43288 21.8468 6.29303 21.707C6.01626 21.4263 5.67703 21.215 5.30303 21.0904C4.92903 20.9658 4.53086 20.9314 4.14103 20.99C3.98741 21.0119 3.8308 20.9977 3.68361 20.9486C3.53641 20.8995 3.40266 20.8168 3.29294 20.7071C3.18321 20.5974 3.10053 20.4636 3.05143 20.3164C3.00233 20.1692 2.98815 20.0126 3.01003 19.859C3.06865 19.4692 3.03425 19.071 2.90964 18.697C2.78504 18.323 2.57375 17.9838 2.29303 17.707C2.15322 17.5671 2.05802 17.389 2.01945 17.195C1.98088 17.0011 2.00068 16.8 2.07635 16.6173C2.15202 16.4346 2.28016 16.2785 2.44457 16.1686C2.60898 16.0587 2.80228 16 3.00003 16H7.00003" stroke="#475569" stroke-width="1.5" stroke-linecap="round" stroke-linejoin="round"/>
</svg>
