<svg width="24" height="24" viewBox="0 0 24 24" fill="none" xmlns="http://www.w3.org/2000/svg">
<path d="M9 3H4C3.44772 3 3 3.44772 3 4V15C3 15.5523 3.44772 16 4 16H9C9.55228 16 10 15.5523 10 15V4C10 3.44772 9.55228 3 9 3Z" stroke="#475569" stroke-width="1.5" stroke-linecap="round" stroke-linejoin="round"/>
<path d="M9 22L12 19L15 22" stroke="#475569" stroke-width="1.5" stroke-linecap="round" stroke-linejoin="round"/>
<path d="M20 3H15C14.4477 3 14 3.44772 14 4V15C14 15.5523 14.4477 16 15 16H20C20.5523 16 21 15.5523 21 15V4C21 3.44772 20.5523 3 20 3Z" stroke="#475569" stroke-width="1.5" stroke-linecap="round" stroke-linejoin="round"/>
</svg>
