<svg width="24" height="24" viewBox="0 0 24 24" fill="none" xmlns="http://www.w3.org/2000/svg">
<path d="M15.686 15C15.1299 17.6299 13.8537 20.0534 12 22C9.43219 19.3038 7.99996 15.7233 7.99996 12C7.99996 8.27674 9.43219 4.69615 12 2C10.1518 2.00048 8.33998 2.51311 6.76555 3.48098C5.19112 4.44885 3.91571 5.8341 3.0809 7.48294C2.24609 9.13178 1.88453 10.9797 2.03638 12.8216C2.18822 14.6635 2.84752 16.4273 3.94108 17.9171C5.03465 19.407 6.51969 20.5647 8.23137 21.2616C9.94304 21.9586 11.8144 22.1676 13.6376 21.8654C15.4609 21.5632 17.1648 20.7617 18.5601 19.5498C19.9554 18.3379 20.9875 16.763 21.542 15" stroke="#475569" stroke-width="1.5" stroke-linecap="round" stroke-linejoin="round"/>
<path d="M2 12H10.5" stroke="#475569" stroke-width="1.5" stroke-linecap="round" stroke-linejoin="round"/>
<path d="M20 6V4C20 3.46957 19.7893 2.96086 19.4142 2.58579C19.0391 2.21071 18.5304 2 18 2C17.4696 2 16.9609 2.21071 16.5858 2.58579C16.2107 2.96086 16 3.46957 16 4V6" stroke="#475569" stroke-width="1.5" stroke-linecap="round" stroke-linejoin="round"/>
<path d="M21 6H15C14.4477 6 14 6.44772 14 7V10C14 10.5523 14.4477 11 15 11H21C21.5523 11 22 10.5523 22 10V7C22 6.44772 21.5523 6 21 6Z" stroke="#475569" stroke-width="1.5" stroke-linecap="round" stroke-linejoin="round"/>
</svg>
