<svg width="24" height="24" viewBox="0 0 24 24" fill="none" xmlns="http://www.w3.org/2000/svg">
<path d="M8 2L9.88 3.88" stroke="#475569" stroke-width="1.5" stroke-linecap="round" stroke-linejoin="round"/>
<path d="M14.12 3.88L16 2" stroke="#475569" stroke-width="1.5" stroke-linecap="round" stroke-linejoin="round"/>
<path d="M9.00001 7.13V6.13C8.98188 5.72474 9.04605 5.32002 9.18864 4.94025C9.33123 4.56047 9.54928 4.21353 9.82964 3.92034C10.11 3.62716 10.4469 3.39382 10.8199 3.2344C11.1929 3.07499 11.5944 2.9928 12 2.9928C12.4057 2.9928 12.8071 3.07499 13.1801 3.2344C13.5532 3.39382 13.89 3.62716 14.1704 3.92034C14.4507 4.21353 14.6688 4.56047 14.8114 4.94025C14.954 5.32002 15.0181 5.72474 15 6.13V7.13" stroke="#475569" stroke-width="1.5" stroke-linecap="round" stroke-linejoin="round"/>
<path d="M12 20C8.7 20 6 17.3 6 14V11C6 9.93913 6.42143 8.92172 7.17157 8.17157C7.92172 7.42143 8.93913 7 10 7H14C15.0609 7 16.0783 7.42143 16.8284 8.17157C17.5786 8.92172 18 9.93913 18 11V14C18 17.3 15.3 20 12 20Z" stroke="#475569" stroke-width="1.5" stroke-linecap="round" stroke-linejoin="round"/>
<path d="M12 20V11" stroke="#475569" stroke-width="1.5" stroke-linecap="round" stroke-linejoin="round"/>
<path d="M6.53 9C4.6 8.8 3 7.1 3 5" stroke="#475569" stroke-width="1.5" stroke-linecap="round" stroke-linejoin="round"/>
<path d="M6 13H2" stroke="#475569" stroke-width="1.5" stroke-linecap="round" stroke-linejoin="round"/>
<path d="M3 21C3 18.9 4.7 17.1 6.8 17" stroke="#475569" stroke-width="1.5" stroke-linecap="round" stroke-linejoin="round"/>
<path d="M20.97 5C20.97 7.1 19.37 8.8 17.47 9" stroke="#475569" stroke-width="1.5" stroke-linecap="round" stroke-linejoin="round"/>
<path d="M22 13H18" stroke="#475569" stroke-width="1.5" stroke-linecap="round" stroke-linejoin="round"/>
<path d="M17.2 17C19.3 17.1 21 18.9 21 21" stroke="#475569" stroke-width="1.5" stroke-linecap="round" stroke-linejoin="round"/>
</svg>
