<svg width="24" height="24" viewBox="0 0 24 24" fill="none" xmlns="http://www.w3.org/2000/svg">
<path d="M18.715 13.186C18.29 11.858 17.384 10.607 16 9.5C14 7.9 12.5 5.5 12 3C11.8171 3.89624 11.52 4.76533 11.116 5.586" stroke="#475569" stroke-width="1.5" stroke-linecap="round" stroke-linejoin="round"/>
<path d="M2 2L22 22" stroke="#475569" stroke-width="1.5" stroke-linecap="round" stroke-linejoin="round"/>
<path d="M8.795 8.797C8.54146 9.04398 8.27616 9.27859 8 9.5C6 11.1 5 13 5 15C4.99984 16.5696 5.52719 18.0936 6.49735 19.3275C7.46751 20.5613 8.82419 21.4333 10.3495 21.8033C11.8748 22.1734 13.4802 22.0201 14.908 21.3681C16.3357 20.7161 17.5028 19.6031 18.222 18.208" stroke="#475569" stroke-width="1.5" stroke-linecap="round" stroke-linejoin="round"/>
</svg>
