<svg width="24" height="24" viewBox="0 0 24 24" fill="none" xmlns="http://www.w3.org/2000/svg">
<path d="M16.75 12H20.382C20.5524 12.0001 20.7199 12.0437 20.8687 12.1267C21.0175 12.2098 21.1426 12.3294 21.2322 12.4744C21.3217 12.6194 21.3728 12.7848 21.3804 12.955C21.3881 13.1252 21.3521 13.2946 21.276 13.447L19.242 17.516C19.1648 17.6702 19.0492 17.8018 18.9062 17.8981C18.7632 17.9944 18.5977 18.0521 18.4258 18.0656C18.254 18.0791 18.0815 18.0479 17.9253 17.9751C17.769 17.9022 17.6342 17.7903 17.534 17.65L15.41 14.68" stroke="#475569" stroke-width="1.5" stroke-linecap="round" stroke-linejoin="round"/>
<path d="M17.106 9.05304C17.343 9.17169 17.5232 9.37957 17.6071 9.63102C17.6909 9.88247 17.6714 10.1569 17.553 10.394L14.447 16.605C14.3883 16.7225 14.307 16.8273 14.2077 16.9133C14.1085 16.9994 13.9932 17.065 13.8686 17.1066C13.744 17.1481 13.6124 17.1646 13.4814 17.1553C13.3504 17.1459 13.2225 17.1108 13.105 17.052L3.61002 12.3C2.92035 11.9527 2.39637 11.3462 2.15274 10.6134C1.90911 9.88067 1.96566 9.08122 2.31002 8.39004L3.69002 5.60004C3.86202 5.25726 4.09986 4.95172 4.38996 4.70087C4.68005 4.45002 5.01673 4.25878 5.38074 4.13806C5.74476 4.01734 6.12899 3.96951 6.51149 3.9973C6.894 4.02509 7.26728 4.12797 7.61002 4.30004L17.106 9.05304Z" stroke="#475569" stroke-width="1.5" stroke-linecap="round" stroke-linejoin="round"/>
<path d="M2 19H5.76C6.13273 19.0026 6.49877 18.901 6.81682 18.7066C7.13487 18.5122 7.39228 18.2329 7.56 17.9L9 15" stroke="#475569" stroke-width="1.5" stroke-linecap="round" stroke-linejoin="round"/>
<path d="M2 21V17" stroke="#475569" stroke-width="1.5" stroke-linecap="round" stroke-linejoin="round"/>
<path d="M7 9H7.01" stroke="#475569" stroke-width="1.5" stroke-linecap="round" stroke-linejoin="round"/>
</svg>
