<svg width="24" height="24" viewBox="0 0 24 24" fill="none" xmlns="http://www.w3.org/2000/svg">
<path d="M16.4 13.7C17.2202 13.0836 17.8828 12.2818 18.3337 11.3602C18.7845 10.4386 19.0108 9.4234 18.9941 8.39756C18.9773 7.37172 18.7179 6.36442 18.2372 5.45805C17.7564 4.55168 17.068 3.77198 16.2281 3.18273C15.3882 2.59348 14.4208 2.21142 13.4049 2.06779C12.389 1.92416 11.3536 2.02305 10.3832 2.35637C9.41292 2.68968 8.53528 3.24795 7.8221 3.98552C7.10893 4.72309 6.58049 5.61901 6.27999 6.59999C5.17999 9.72999 5.49999 10.5 3.09999 12.68C2.62175 13.0721 2.27636 13.6023 2.1111 14.1983C1.94583 14.7942 1.96876 15.4266 2.17676 16.009C2.38475 16.5914 2.76764 17.0953 3.27302 17.4517C3.7784 17.8081 4.38158 17.9996 4.99999 18C8.99999 18 13.4 16.2 16.4 13.7Z" stroke="#475569" stroke-width="1.5" stroke-linecap="round" stroke-linejoin="round"/>
<path d="M18.5 6L20.69 10.5C21.1092 11.7889 21.1137 13.1767 20.7029 14.4683C20.2921 15.7598 19.4867 16.8901 18.4 17.7C15.4 20.2 11 22 6.99999 22C6.44324 21.9992 5.89769 21.8436 5.42438 21.5504C4.95107 21.2572 4.56868 20.8381 4.31999 20.34L2.39999 16.5" stroke="#475569" stroke-width="1.5" stroke-linecap="round" stroke-linejoin="round"/>
<path d="M12.5 11C13.8807 11 15 9.88071 15 8.5C15 7.11929 13.8807 6 12.5 6C11.1193 6 10 7.11929 10 8.5C10 9.88071 11.1193 11 12.5 11Z" stroke="#475569" stroke-width="1.5" stroke-linecap="round" stroke-linejoin="round"/>
</svg>
