<svg width="24" height="24" viewBox="0 0 24 24" fill="none" xmlns="http://www.w3.org/2000/svg">
<path d="M14 2V6C14 6.53043 14.2107 7.03914 14.5858 7.41421C14.9609 7.78929 15.4696 8 16 8H20" stroke="#475569" stroke-width="1.5" stroke-linecap="round" stroke-linejoin="round"/>
<path d="M16 22H18C18.5304 22 19.0391 21.7893 19.4142 21.4142C19.7893 21.0391 20 20.5304 20 20V7L15 2H6C5.46957 2 4.96086 2.21071 4.58579 2.58579C4.21071 2.96086 4 3.46957 4 4V7.5" stroke="#475569" stroke-width="1.5" stroke-linecap="round" stroke-linejoin="round"/>
<path d="M4.01695 11.512C3.40532 12.0547 2.9111 12.7168 2.56464 13.4576C2.21818 14.1983 2.02679 15.002 2.00222 15.8194C1.97765 16.6368 2.12043 17.4505 2.42178 18.2107C2.72313 18.9709 3.17669 19.6615 3.75462 20.24C4.33254 20.8186 5.02263 21.2729 5.7825 21.575C6.54238 21.8772 7.35599 22.0208 8.1734 21.9971C8.9908 21.9734 9.79472 21.7829 10.5358 21.4372C11.2769 21.0915 11.9395 20.598 12.4829 19.987" stroke="#475569" stroke-width="1.5" stroke-linecap="round" stroke-linejoin="round"/>
<path d="M9 16C8.73478 16 8.48043 15.8947 8.29289 15.7071C8.10536 15.5196 8 15.2653 8 15V11C8 10.448 8.45 9.99204 8.995 10.083C10.2253 10.2899 11.3605 10.8752 12.2427 11.7573C13.1249 12.6395 13.7101 13.7747 13.917 15.005C14.008 15.549 13.552 16 13 16H9Z" stroke="#475569" stroke-width="1.5" stroke-linecap="round" stroke-linejoin="round"/>
</svg>
