<svg width="24" height="24" viewBox="0 0 24 24" fill="none" xmlns="http://www.w3.org/2000/svg">
<path d="M10.0996 2.18216C11.3546 1.93928 12.6446 1.93928 13.8996 2.18216" stroke="#475569" stroke-width="1.5" stroke-linecap="round" stroke-linejoin="round"/>
<path d="M13.8996 21.8184C12.6446 22.0612 11.3546 22.0612 10.0996 21.8184" stroke="#475569" stroke-width="1.5" stroke-linecap="round" stroke-linejoin="round"/>
<path d="M17.6094 3.7207C18.6708 4.43993 19.5841 5.35657 20.2994 6.4207" stroke="#475569" stroke-width="1.5" stroke-linecap="round" stroke-linejoin="round"/>
<path d="M2.18216 13.8996C1.93928 12.6446 1.93928 11.3546 2.18216 10.0996" stroke="#475569" stroke-width="1.5" stroke-linecap="round" stroke-linejoin="round"/>
<path d="M20.2791 17.6094C19.5599 18.6708 18.6432 19.5841 17.5791 20.2994" stroke="#475569" stroke-width="1.5" stroke-linecap="round" stroke-linejoin="round"/>
<path d="M21.8184 10.0996C22.0612 11.3546 22.0612 12.6446 21.8184 13.8996" stroke="#475569" stroke-width="1.5" stroke-linecap="round" stroke-linejoin="round"/>
<path d="M3.7207 6.39117C4.43993 5.3297 5.35657 4.41645 6.4207 3.70117" stroke="#475569" stroke-width="1.5" stroke-linecap="round" stroke-linejoin="round"/>
<path d="M6.39099 20.279C5.32952 19.5598 4.41627 18.6431 3.70099 17.579" stroke="#475569" stroke-width="1.5" stroke-linecap="round" stroke-linejoin="round"/>
</svg>
