<svg width="24" height="24" viewBox="0 0 24 24" fill="none" xmlns="http://www.w3.org/2000/svg">
<path d="M10.827 16.379C9.77918 16.9085 8.60047 17.1234 7.43317 16.9978C6.26586 16.8722 5.15987 16.4114 4.24867 15.6711C3.33747 14.9307 2.66003 13.9425 2.2981 12.8256C1.93617 11.7088 1.90524 10.511 2.20903 9.37697L7.62103 10.827C7.0915 9.77912 6.87658 8.60041 7.00219 7.43311C7.1278 6.2658 7.58859 5.15981 8.32892 4.24861C9.06926 3.33741 10.0575 2.65996 11.1744 2.29804C12.2912 1.93611 13.489 1.90518 14.623 2.20897L13.173 7.62097C14.2209 7.09144 15.3996 6.87652 16.5669 7.00213C17.7342 7.12774 18.8402 7.58853 19.7514 8.32886C20.6626 9.06919 21.34 10.0574 21.702 11.1743C22.0639 12.2912 22.0948 13.4889 21.791 14.623L16.379 13.173C16.9085 14.2208 17.1235 15.3995 16.9979 16.5668C16.8722 17.7341 16.4115 18.8401 15.6711 19.7513C14.9308 20.6625 13.9426 21.34 12.8257 21.7019C11.7088 22.0638 10.5111 22.0948 9.37703 21.791L10.827 16.379Z" stroke="#475569" stroke-width="1.5" stroke-linecap="round" stroke-linejoin="round"/>
<path d="M12 12V12.01" stroke="#475569" stroke-width="1.5" stroke-linecap="round" stroke-linejoin="round"/>
</svg>
