<svg width="24" height="24" viewBox="0 0 24 24" fill="none" xmlns="http://www.w3.org/2000/svg">
<path d="M14.5 22H18C18.5304 22 19.0391 21.7893 19.4142 21.4142C19.7893 21.0391 20 20.5304 20 20V7L15 2H6C5.46957 2 4.96086 2.21071 4.58579 2.58579C4.21071 2.96086 4 3.46957 4 4V8" stroke="#475569" stroke-width="1.5" stroke-linecap="round" stroke-linejoin="round"/>
<path d="M14 2V6C14 6.53043 14.2107 7.03914 14.5858 7.41421C14.9609 7.78929 15.4696 8 16 8H20" stroke="#475569" stroke-width="1.5" stroke-linecap="round" stroke-linejoin="round"/>
<path d="M2.99996 13.1C2.69178 13.2779 2.43664 13.5348 2.26085 13.8442C2.08507 14.1536 1.995 14.5042 1.99996 14.86V18.1C1.98838 18.4562 2.07219 18.8091 2.24273 19.122C2.41327 19.435 2.66434 19.6967 2.96996 19.88L5.99996 21.7C6.30664 21.8827 6.65663 21.98 7.01359 21.9817C7.37056 21.9835 7.72149 21.8897 8.02996 21.71L11 19.9C11.3081 19.7222 11.5633 19.4653 11.7391 19.1559C11.9148 18.8465 12.0049 18.4958 12 18.14V14.9C12.0115 14.5438 11.9277 14.191 11.7572 13.878C11.5866 13.5651 11.3356 13.3034 11.03 13.12L7.99996 11.3C7.69327 11.1174 7.34328 11.0201 6.98632 11.0183C6.62936 11.0166 6.27843 11.1104 5.96996 11.29L2.99996 13.1Z" stroke="#475569" stroke-width="1.5" stroke-linecap="round" stroke-linejoin="round"/>
<path d="M7 17V22" stroke="#475569" stroke-width="1.5" stroke-linecap="round" stroke-linejoin="round"/>
<path d="M11.7 14.2L7.00005 17L2.30005 14.2" stroke="#475569" stroke-width="1.5" stroke-linecap="round" stroke-linejoin="round"/>
</svg>
