<svg width="24" height="24" viewBox="0 0 24 24" fill="none" xmlns="http://www.w3.org/2000/svg">
<path d="M15.4 15.63C13.9034 16.1101 12.4187 16.1218 11.1644 15.6631C9.91006 15.2045 8.95243 14.2998 8.43242 13.0823C7.9124 11.8647 7.85747 10.3985 8.2757 8.89958C8.69392 7.40062 9.56322 5.94803 10.7557 4.7556C11.9481 3.56316 13.4007 2.69386 14.8996 2.27564C16.3986 1.85741 17.8647 1.91234 19.0823 2.43236C20.2999 2.95237 21.2046 3.91 21.6632 5.1643C22.1218 6.4186 22.1102 7.90332 21.63 9.39995C20.9352 9.00362 20.0543 8.90503 19.1354 9.12078C18.2166 9.33653 17.3158 9.85345 16.5847 10.5846C15.8535 11.3157 15.3366 12.2165 15.1208 13.1354C14.9051 14.0542 15.0037 14.9352 15.4 15.63Z" stroke="#475569" stroke-width="1.5" stroke-linecap="round" stroke-linejoin="round"/>
<path d="M8.29001 12.71L5.69001 15.31C5.37247 15.135 5.02068 15.0312 4.65903 15.0058C4.29739 14.9804 3.93454 15.0339 3.59564 15.1627C3.25674 15.2914 2.94991 15.4924 2.69641 15.7516C2.44291 16.0107 2.24881 16.3219 2.12757 16.6636C2.00634 17.0053 1.96086 17.3692 1.9943 17.7302C2.02774 18.0912 2.13929 18.4406 2.32122 18.7542C2.50315 19.0678 2.75111 19.3381 3.0479 19.5463C3.3447 19.7545 3.68322 19.8956 4.04001 19.96C4.11002 20.3121 4.25505 20.645 4.46525 20.9361C4.67545 21.2272 4.94588 21.4696 5.25814 21.6468C5.5704 21.824 5.91716 21.9318 6.27484 21.963C6.63252 21.9942 6.99272 21.948 7.33094 21.8275C7.66915 21.707 7.97745 21.5151 8.23486 21.2648C8.49226 21.0145 8.69274 20.7117 8.82264 20.377C8.95255 20.0423 9.00883 19.6835 8.98767 19.3251C8.96651 18.9667 8.8684 18.6171 8.70001 18.3L11.29 15.71" stroke="#475569" stroke-width="1.5" stroke-linecap="round" stroke-linejoin="round"/>
</svg>
