<svg width="24" height="24" viewBox="0 0 24 24" fill="none" xmlns="http://www.w3.org/2000/svg">
<path d="M19.07 4.93005C17.5129 3.37126 15.4845 2.37036 13.3001 2.08284C11.1157 1.79532 8.89743 2.23728 6.98999 3.34005" stroke="#475569" stroke-width="1.5" stroke-linecap="round" stroke-linejoin="round"/>
<path d="M4 6H4.01" stroke="#475569" stroke-width="1.5" stroke-linecap="round" stroke-linejoin="round"/>
<path d="M2.29001 9.6201C1.91511 11.1472 1.90559 12.7411 2.26224 14.2725C2.61889 15.804 3.33165 17.2297 4.34265 18.434C5.35365 19.6383 6.6344 20.5872 8.08091 21.2037C9.52743 21.8202 11.0989 22.0869 12.6679 21.9822C14.2368 21.8774 15.7589 21.4041 17.1106 20.6008C18.4623 19.7975 19.6055 18.6867 20.4474 17.3587C21.2893 16.0306 21.8062 14.5228 21.9561 12.9575C22.106 11.3923 21.8846 9.81376 21.31 8.3501" stroke="#475569" stroke-width="1.5" stroke-linecap="round" stroke-linejoin="round"/>
<path d="M16.24 7.75992C15.6645 7.18108 14.977 6.72575 14.2195 6.42179C13.4619 6.11783 12.6504 5.97163 11.8344 5.99213C11.0184 6.01263 10.2152 6.1994 9.47388 6.54103C8.73257 6.88265 8.06877 7.37193 7.52307 7.97894C6.97738 8.58594 6.56128 9.29791 6.30022 10.0713C6.03917 10.8446 5.93865 11.6631 6.00483 12.4767C6.071 13.2902 6.30248 14.0817 6.68508 14.8027C7.06769 15.5237 7.59339 16.1591 8.23001 16.6699" stroke="#475569" stroke-width="1.5" stroke-linecap="round" stroke-linejoin="round"/>
<path d="M12 18H12.01" stroke="#475569" stroke-width="1.5" stroke-linecap="round" stroke-linejoin="round"/>
<path d="M17.99 11.6599C18.0444 12.6113 17.8714 13.5619 17.4853 14.4332C17.0993 15.3044 16.5113 16.0711 15.77 16.6699" stroke="#475569" stroke-width="1.5" stroke-linecap="round" stroke-linejoin="round"/>
<path d="M12 14C13.1046 14 14 13.1046 14 12C14 10.8954 13.1046 10 12 10C10.8954 10 10 10.8954 10 12C10 13.1046 10.8954 14 12 14Z" stroke="#475569" stroke-width="1.5" stroke-linecap="round" stroke-linejoin="round"/>
<path d="M13.41 10.5899L19.07 4.92993" stroke="#475569" stroke-width="1.5" stroke-linecap="round" stroke-linejoin="round"/>
</svg>
