<svg width="24" height="24" viewBox="0 0 24 24" fill="none" xmlns="http://www.w3.org/2000/svg">
<path d="M5.70002 21.0001C5.5687 21.2299 5.39339 21.4316 5.18412 21.5936C4.97485 21.7557 4.73571 21.875 4.48035 21.9446C3.96462 22.0852 3.41415 22.0153 2.95002 21.7501C2.48589 21.4848 2.14613 21.0461 2.00547 20.5304C1.86482 20.0147 1.9348 19.4642 2.20002 19.0001L10.8 5.00005C11.5957 3.62093 12.9066 2.61436 14.4444 2.20178C15.9822 1.7892 17.6209 2.0044 19 2.80005C20.3791 3.5957 21.3857 4.90662 21.7983 6.44442C22.2109 7.98221 21.9957 9.62093 21.2 11.0001C21.0697 11.2293 20.8952 11.4306 20.6868 11.5922C20.4783 11.7538 20.2399 11.8726 19.9854 11.9417C19.7309 12.0108 19.4652 12.0289 19.2036 11.9949C18.942 11.9609 18.6898 11.8755 18.4614 11.7436C18.2329 11.6117 18.0329 11.4359 17.8726 11.2264C17.7124 11.0169 17.5952 10.7777 17.5278 10.5227C17.4604 10.2677 17.4441 10.0019 17.4798 9.7406C17.5156 9.47927 17.6026 9.22759 17.736 9.00005C17.8694 8.77251 17.9565 8.52083 17.9922 8.2595C18.0279 7.99817 18.0116 7.73236 17.9442 7.47736C17.8768 7.22236 17.7596 6.98322 17.5994 6.77369C17.4392 6.56417 17.2391 6.38841 17.0107 6.25652C16.7823 6.12464 16.53 6.03924 16.2684 6.00525C16.0069 5.97125 15.7412 5.98932 15.4866 6.05843C15.2321 6.12754 14.9937 6.24631 14.7853 6.40792C14.5768 6.56952 14.4024 6.77076 14.272 7.00005L5.70002 21.0001Z" stroke="#475569" stroke-width="1.5" stroke-linecap="round" stroke-linejoin="round"/>
<path d="M17.75 6.99998L15 2.09998" stroke="#475569" stroke-width="1.5" stroke-linecap="round" stroke-linejoin="round"/>
<path d="M10.9 4.80005L13 9.00005" stroke="#475569" stroke-width="1.5" stroke-linecap="round" stroke-linejoin="round"/>
<path d="M7.90002 9.69995L9.90002 14.1" stroke="#475569" stroke-width="1.5" stroke-linecap="round" stroke-linejoin="round"/>
<path d="M4.90002 14.7L7.00002 18.9" stroke="#475569" stroke-width="1.5" stroke-linecap="round" stroke-linejoin="round"/>
</svg>
