<svg width="24" height="24" viewBox="0 0 24 24" fill="none" xmlns="http://www.w3.org/2000/svg">
<path d="M12 10V22" stroke="#475569" stroke-width="1.5" stroke-linecap="round" stroke-linejoin="round"/>
<path d="M17.929 7.629C17.9896 7.78075 18.0121 7.94505 17.9945 8.10752C17.977 8.26999 17.9199 8.42567 17.8282 8.56096C17.7365 8.69624 17.6131 8.80699 17.4687 8.88353C17.3243 8.96007 17.1634 9.00006 17 9H6.99998C6.83665 8.9999 6.67583 8.95979 6.53158 8.88318C6.38733 8.80657 6.26404 8.6958 6.17248 8.56054C6.08093 8.42528 6.0239 8.26966 6.00638 8.10727C5.98886 7.94488 6.01138 7.78067 6.07198 7.629L8.07198 2.629C8.14611 2.44344 8.27414 2.28434 8.43955 2.17223C8.60495 2.06011 8.80016 2.00013 8.99998 2H15C15.1998 2.00013 15.395 2.06011 15.5604 2.17223C15.7258 2.28434 15.8538 2.44344 15.928 2.629L17.929 7.629Z" stroke="#475569" stroke-width="1.5" stroke-linecap="round" stroke-linejoin="round"/>
<path d="M9 22H15" stroke="#475569" stroke-width="1.5" stroke-linecap="round" stroke-linejoin="round"/>
</svg>
