<svg width="24" height="24" viewBox="0 0 24 24" fill="none" xmlns="http://www.w3.org/2000/svg">
<path d="M10.3 20.0001H4C3.46957 20.0001 2.96086 19.7894 2.58579 19.4143C2.21071 19.0392 2 18.5305 2 18.0001V5.0001C2 4.46966 2.21071 3.96096 2.58579 3.58588C2.96086 3.21081 3.46957 3.0001 4 3.0001H7.98C8.31449 2.99682 8.64445 3.07748 8.9397 3.23472C9.23495 3.39195 9.48604 3.62072 9.67 3.9001L10.33 5.1001C10.5121 5.37663 10.76 5.60362 11.0515 5.7607C11.343 5.91778 11.6689 6.00004 12 6.0001H20C20.5304 6.0001 21.0391 6.21081 21.4142 6.58588C21.7893 6.96096 22 7.46966 22 8.0001V11.3001" stroke="#475569" stroke-width="1.5" stroke-linecap="round" stroke-linejoin="round"/>
<path d="M14.305 19.5299L15.228 19.1479" stroke="#475569" stroke-width="1.5" stroke-linecap="round" stroke-linejoin="round"/>
<path d="M15.228 16.852L14.305 16.469" stroke="#475569" stroke-width="1.5" stroke-linecap="round" stroke-linejoin="round"/>
<path d="M16.852 15.2279L16.469 14.3049" stroke="#475569" stroke-width="1.5" stroke-linecap="round" stroke-linejoin="round"/>
<path d="M16.852 20.772L16.469 21.696" stroke="#475569" stroke-width="1.5" stroke-linecap="round" stroke-linejoin="round"/>
<path d="M19.148 15.2279L19.531 14.3049" stroke="#475569" stroke-width="1.5" stroke-linecap="round" stroke-linejoin="round"/>
<path d="M19.53 21.696L19.148 20.772" stroke="#475569" stroke-width="1.5" stroke-linecap="round" stroke-linejoin="round"/>
<path d="M20.772 16.852L21.696 16.469" stroke="#475569" stroke-width="1.5" stroke-linecap="round" stroke-linejoin="round"/>
<path d="M20.772 19.1479L21.696 19.5309" stroke="#475569" stroke-width="1.5" stroke-linecap="round" stroke-linejoin="round"/>
<path d="M18 21C19.6569 21 21 19.6569 21 18C21 16.3431 19.6569 15 18 15C16.3431 15 15 16.3431 15 18C15 19.6569 16.3431 21 18 21Z" stroke="#475569" stroke-width="1.5" stroke-linecap="round" stroke-linejoin="round"/>
</svg>
