<svg width="24" height="24" viewBox="0 0 24 24" fill="none" xmlns="http://www.w3.org/2000/svg">
<path d="M17.5 21H8.99998C7.70184 20.9997 6.42937 20.6384 5.32475 19.9565C4.22014 19.2746 3.3269 18.2989 2.74485 17.1386C2.1628 15.9783 1.91487 14.679 2.02877 13.3858C2.14267 12.0927 2.61391 10.8567 3.38982 9.81598C4.16574 8.77526 5.21577 7.97079 6.42258 7.49249C7.62938 7.01418 8.94542 6.88087 10.2236 7.10747C11.5018 7.33406 12.6919 7.91162 13.6607 8.77561C14.6296 9.6396 15.3391 10.756 15.71 12H17.5C18.0909 12 18.6761 12.1164 19.2221 12.3425C19.768 12.5687 20.2641 12.9002 20.682 13.318C21.0998 13.7359 21.4313 14.232 21.6574 14.7779C21.8836 15.3239 22 15.9091 22 16.5C22 17.091 21.8836 17.6761 21.6574 18.2221C21.4313 18.768 21.0998 19.2641 20.682 19.682C20.2641 20.0998 19.768 20.4313 19.2221 20.6575C18.6761 20.8836 18.0909 21 17.5 21Z" stroke="#475569" stroke-width="1.5" stroke-linecap="round" stroke-linejoin="round"/>
<path d="M22 10.0001C22 9.20441 21.6839 8.44135 21.1213 7.87874C20.5587 7.31613 19.7957 7.00006 19 7.00006H16.793C16.4538 5.80639 15.7209 4.76245 14.7136 4.03779C13.7062 3.31312 12.4834 2.95028 11.2438 3.0082C10.0042 3.06611 8.82061 3.54137 7.88519 4.35681C6.94977 5.17224 6.31748 6.27995 6.091 7.50006" stroke="#475569" stroke-width="1.5" stroke-linecap="round" stroke-linejoin="round"/>
</svg>
