<svg width="24" height="24" viewBox="0 0 24 24" fill="none" xmlns="http://www.w3.org/2000/svg">
<path d="M6.29997 20.3C6.52294 20.5237 6.78788 20.7013 7.07961 20.8224C7.37133 20.9435 7.6841 21.0059 7.99997 21.0059C8.31585 21.0059 8.62861 20.9435 8.92034 20.8224C9.21206 20.7013 9.477 20.5237 9.69997 20.3L12 18L5.99997 12L3.69997 14.3C3.47623 14.523 3.2987 14.7879 3.17757 15.0796C3.05643 15.3714 2.99408 15.6841 2.99408 16C2.99408 16.3159 3.05643 16.6286 3.17757 16.9204C3.2987 17.2121 3.47623 17.477 3.69997 17.7L6.29997 20.3Z" stroke="#475569" stroke-width="1.5" stroke-linecap="round" stroke-linejoin="round"/>
<path d="M2 22L5 19" stroke="#475569" stroke-width="1.5" stroke-linecap="round" stroke-linejoin="round"/>
<path d="M7.5 13.5L10 11" stroke="#475569" stroke-width="1.5" stroke-linecap="round" stroke-linejoin="round"/>
<path d="M10.5 16.5L13 14" stroke="#475569" stroke-width="1.5" stroke-linecap="round" stroke-linejoin="round"/>
<path d="M18 3L14 7H20L16 11" stroke="#475569" stroke-width="1.5" stroke-linecap="round" stroke-linejoin="round"/>
</svg>
